<?xml version="1.0" standalone="no"?>
<!DOCTYPE svg PUBLIC "-//W3C//DTD SVG 1.1//EN" "http://www.w3.org/Graphics/SVG/1.1/DTD/svg11.dtd" >
<svg xmlns="http://www.w3.org/2000/svg">
<metadata></metadata>
<defs>
<font id="donatorabold" horiz-adv-x="1120" >
<font-face units-per-em="2048" ascent="1638" descent="-410" />
<missing-glyph horiz-adv-x="368" />
<glyph horiz-adv-x="2048" />
<glyph horiz-adv-x="2048" />
<glyph unicode="&#xd;" horiz-adv-x="2048" />
<glyph unicode=" "  horiz-adv-x="368" />
<glyph unicode="&#x09;" horiz-adv-x="368" />
<glyph unicode="&#xa0;" horiz-adv-x="368" />
<glyph unicode="!" horiz-adv-x="722" d="M205 1176q0 73 41 116t110 43t110.5 -43t41.5 -116q0 -53 -49.5 -222t-52.5 -241q-3 -51 -8.5 -123.5t-9 -127t-3.5 -104.5q0 -8 -5.5 -14t-14.5 -6h-17q-9 0 -15.5 6t-6.5 14q0 51 -2.5 104t-8 129t-8.5 122q-4 71 -53 240t-49 223zM231 111q0 53 36.5 91t88.5 38 q51 0 88 -38t37 -91q0 -54 -37 -91.5t-88 -37.5q-52 0 -88.5 37.5t-36.5 91.5z" />
<glyph unicode="&#x22;" horiz-adv-x="811" d="M143 1204q0 55 32 92t81 37q50 0 81.5 -37t31.5 -92q0 -34 -29 -95.5t-37 -109.5q-12 -74 -16 -188q0 -9 -7 -16t-16 -7h-16q-9 0 -15 7t-6 16q-4 97 -18 188q-8 48 -37 109.5t-29 95.5zM442 1204q0 55 31.5 92t81.5 37t81.5 -37t31.5 -92q0 -34 -29 -95.5t-37 -109.5 q-16 -101 -16 -188q0 -9 -7 -16t-16 -7h-16q-19 0 -23 23q0 87 -16 188q-8 48 -37 109.5t-29 95.5z" />
<glyph unicode="#" horiz-adv-x="788" d="M51 631v35q0 9 7 15.5t16 6.5h129l45 283h-117q-9 0 -15.5 6.5t-6.5 15.5v35q0 9 6.5 16t15.5 7h129l41 264q1 9 9 14.5t16 3.5l34 -4q9 -2 14.5 -9.5t4.5 -16.5l-39 -252h178l43 264q2 9 9 14t16 4l35 -4q9 -1 14.5 -9t3.5 -17l-39 -252h115q9 0 15.5 -7t6.5 -16v-35 q0 -9 -6.5 -15.5t-15.5 -6.5h-129l-43 -283h114q9 0 16 -6.5t7 -15.5v-35q0 -9 -7 -16t-16 -7h-129l-41 -264q-4 -21 -24 -18l-35 6q-21 4 -18 24l39 252h-179l-43 -264q-4 -21 -24 -18l-35 6q-21 4 -18 24l40 252h-116q-9 0 -16 7t-7 16zM283 688h178l45 283h-178z" />
<glyph unicode="$" horiz-adv-x="944" d="M125 883q10 129 94 204.5t203 75.5v207q0 9 6.5 15t15.5 6h35q9 0 16 -6t7 -15v-207q128 -10 212.5 -90t76.5 -182q-5 -52 -40 -85t-85 -30q-60 4 -88.5 50t-13.5 101t65 83q-14 24 -54.5 46t-72.5 27v-374q71 -29 123 -61t96 -75.5t64 -101t14 -127.5 q-10 -132 -93.5 -207.5t-203.5 -73.5v-206q0 -9 -7 -16t-16 -7h-35q-9 0 -15.5 7t-6.5 16v211q-119 8 -208.5 90t-82.5 180q4 52 39 80.5t88 25.5q61 -4 91 -51.5t15 -102.5t-69 -79q21 -23 59.5 -45.5t67.5 -26.5v379q-71 31 -122.5 62t-95.5 74.5t-64.5 101t-14.5 127.5z M291 889q3 -93 131 -148v338q-71 -17 -102 -69t-29 -121zM502 139q49 8 80 41t41 72t8 84q0 46 -29.5 82t-99.5 67v-346z" />
<glyph unicode="%" horiz-adv-x="1660" d="M164 940q0 80 27 154t68.5 125.5t93 82.5t100.5 31q99 0 186 -104q68 -10 131 -10q96 0 179.5 21.5t135.5 57.5l13 25q3 8 11 11t17 -1l31 -14q20 -10 12 -29l-604 -1296q-10 -17 -30 -10l-31 14q-20 10 -10 31l565 1212q-45 -39 -121.5 -61.5t-167.5 -22.5q-30 0 -84 4 q55 -96 55 -221q0 -159 -91.5 -277t-196.5 -118q-49 0 -100.5 31t-93 83t-68.5 126.5t-27 154.5zM377 940q0 -206 11 -269t65 -63t65.5 64t11.5 268q0 203 -11.5 266.5t-65.5 63.5t-65 -63t-11 -267zM920 375q0 159 91.5 277t196.5 118t197 -118t92 -277t-92 -276t-197 -117 t-196.5 117t-91.5 276zM1130 375q0 -201 12 -265.5t66 -64.5t66 64.5t12 265.5q0 203 -12 267.5t-66 64.5t-66 -64.5t-12 -267.5z" />
<glyph unicode="&#x26;" horiz-adv-x="1282" d="M123 365q0 119 74.5 214t201.5 154l-24 45q-1 2 -13 20.5t-20 32t-21.5 37t-22.5 45t-18.5 47t-14.5 51.5t-5 50q0 84 50.5 148t126.5 95t161 31q84 0 156.5 -28t120 -85t47.5 -132q0 -62 -18.5 -115t-45.5 -87.5t-66 -64t-72 -45.5t-73 -30l297 -469q46 110 55 303 q-4 18 -22 18h-94q-9 0 -16 7t-7 16v26q0 9 7 15t16 6h295q8 0 14 -6t6 -15v-26q0 -9 -6 -16t-14 -7h-91q-18 0 -22 -18q-3 -225 -76 -375l76 -117q13 -20 35 -20h98q9 0 16 -6.5t7 -14.5v-26q0 -9 -7 -16t-16 -7h-328q-22 8 -34 20.5t-27 38.5q-41 -34 -97 -52t-89.5 -20.5 t-81.5 -2.5q-108 0 -190.5 30.5t-131 84t-72.5 120.5t-24 146zM366.5 364.5q-0.5 -79.5 17.5 -147.5t66.5 -111t120.5 -43q47 0 90 18.5t97 61.5l-312 514q-36 -58 -57.5 -135.5t-22 -157zM492 1092q0 -88 61 -193l57 -96q131 58 131 272q0 191 -131 191q-61 0 -89.5 -41.5 t-28.5 -132.5z" />
<glyph unicode="'" horiz-adv-x="512" d="M143 1204q0 55 32 92t81 37q50 0 81.5 -37t31.5 -92q0 -34 -29 -95.5t-37 -109.5q-12 -74 -16 -188q0 -9 -7 -16t-16 -7h-16q-9 0 -15 7t-6 16q-4 97 -18 188q-8 48 -37 109.5t-29 95.5z" />
<glyph unicode="(" horiz-adv-x="727" d="M164 598q0 235 119 456t350 398q19 11 31 -4l12 -14q14 -14 -2 -31q-258 -268 -258 -805q0 -539 258 -807q6 -5 7 -14t-5 -17l-12 -14q-13 -16 -31 -2q-230 175 -349.5 397t-119.5 457z" />
<glyph unicode=")" horiz-adv-x="727" d="M46 -223q1 9 7 14q258 265 258 807q0 540 -258 805q-6 6 -7 15.5t5 15.5l12 14q12 15 31 4q231 -177 350 -398t119 -456t-119.5 -457t-349.5 -397q-18 -14 -31 2l-12 14q-6 8 -5 17z" />
<glyph unicode="*" horiz-adv-x="1042" d="M116 770q12 45 52 68q55 34 115 0q86 24 182 73q-97 53 -182 76q-58 -33 -115 -2q-40 25 -52 69.5t11 84.5q25 41 69.5 53.5t84.5 -10.5q57 -35 57 -101q56 -56 156 -118q-6 115 -27 194q-26 14 -41.5 40t-15.5 58q0 46 32.5 79.5t79.5 33.5q46 0 79.5 -33.5t33.5 -79.5 q0 -31 -16 -57.5t-41 -40.5q-24 -92 -27 -194q91 56 156 118q0 67 55 101q40 23 85 10.5t68 -53.5q23 -40 11 -84.5t-52 -69.5q-57 -31 -112 2q-88 -23 -182 -76q94 -50 182 -73q57 34 112 0q40 -23 52 -68t-11 -86q-23 -40 -68 -52t-85 11q-55 30 -55 98q-56 56 -156 121 q3 -106 27 -194q25 -14 41 -40.5t16 -58.5q0 -46 -33.5 -79t-79.5 -33q-47 0 -79.5 33t-32.5 79q0 32 15.5 58.5t41.5 40.5q21 76 27 194q-108 -70 -156 -121q0 -67 -57 -98q-40 -23 -84.5 -11t-69.5 52q-23 41 -11 86z" />
<glyph unicode="+" horiz-adv-x="862" d="M102 532v41q0 9 7 15t16 6h264v266q0 9 7 15t16 6h39q9 0 15.5 -6t6.5 -15v-266h264q9 0 16 -6t7 -15v-41q0 -9 -7 -14.5t-16 -5.5h-264v-264q0 -9 -6.5 -16t-15.5 -7h-39q-9 0 -16 7t-7 16v264h-264q-9 0 -16 5.5t-7 14.5z" />
<glyph unicode="," horiz-adv-x="614" d="M154 111q0 53 36 93t99 40q70 0 120.5 -49t51.5 -134q1 -41 -5 -79.5t-20 -71t-27.5 -57.5t-36 -51t-35.5 -40t-36.5 -36t-28.5 -27q-15 -15 -30 -6l-15 10q-6 5 -7 14t3 17q25 27 48.5 57.5t51 75.5t39 93.5t0.5 90.5q-4 -26 -32.5 -47.5t-53.5 -21.5q-57 0 -89.5 38 t-32.5 91z" />
<glyph unicode="-" horiz-adv-x="880" d="M205 532v41q0 9 6.5 15t15.5 6h428q8 0 14.5 -6t6.5 -15v-41q0 -9 -6.5 -14.5t-14.5 -5.5h-428q-9 0 -15.5 5.5t-6.5 14.5z" />
<glyph unicode="." horiz-adv-x="577" d="M164 106q0 53 36.5 91.5t88.5 38.5t88.5 -38.5t36.5 -91.5q0 -54 -36.5 -91.5t-88.5 -37.5t-88.5 37.5t-36.5 91.5z" />
<glyph unicode="/" horiz-adv-x="604" d="M51 -39l418 1366q3 9 11 13t16 1l41 -12q20 -7 16 -29l-418 -1366q-7 -21 -29 -14l-40 12q-9 3 -13.5 11.5t-1.5 17.5z" />
<glyph unicode="0" horiz-adv-x="1150" d="M113 657q0 193 51.5 343.5t157.5 241.5t253 91t253.5 -91t158 -241.5t51.5 -343.5t-51.5 -343.5t-158 -241t-253.5 -90.5t-253 90.5t-157.5 241t-51.5 343.5zM399 657q0 -332 37 -464t139 -132t139.5 132.5t37.5 463.5t-37.5 463.5t-139.5 132.5t-139 -132t-37 -464z" />
<glyph unicode="1" horiz-adv-x="935" d="M143 23v26q0 8 7 14.5t16 6.5h158q9 0 15.5 6.5t6.5 15.5v1114q0 18 -41 32.5t-80 14.5h-82v33q0 9 7 16t16 7l440 16v-1233q0 -9 7 -15.5t16 -6.5h143q9 0 15 -6.5t6 -14.5v-26q0 -9 -6 -16t-15 -7h-606q-9 0 -16 7t-7 16z" />
<glyph unicode="2" horiz-adv-x="950" d="M92 23v26q33 33 90.5 103.5t133.5 178.5t141.5 219t111 231.5t45.5 209.5q0 55 -3 92.5t-12.5 75t-26 60t-45 36t-68.5 13.5q-57 0 -102.5 -19.5t-73.5 -53t-45 -68t-25 -72.5q21 12 47 12q44 0 75.5 -35t31.5 -86q0 -48 -31.5 -80t-75.5 -32q-61 0 -90 42.5t-27 108.5 q1 61 23.5 125t52.5 104q43 59 119 90t164 31q73 1 140 -20t119.5 -61t78.5 -104.5t14 -143.5q-11 -76 -46.5 -154.5t-98.5 -164t-113 -146t-139 -158.5t-127 -143h401q17 0 32 41t15 79v82h33q9 0 14.5 -6t5.5 -14l17 -422h-733q-9 0 -16 7t-7 16z" />
<glyph unicode="3" horiz-adv-x="919" d="M61 244q0 57 25.5 92t79.5 35q43 0 73.5 -35t30.5 -86q0 -39 -28 -67t-70 -33q27 -52 74 -76.5t98 -26.5q40 -1 70.5 8t51 23t34.5 40t21 48t11 59.5t4.5 61.5t0.5 65q0 97 -14.5 158.5t-48 95t-78.5 46t-115 12.5h-70q-9 0 -16 6.5t-7 15.5v19q0 9 7 15.5t16 6.5h70 q112 0 164.5 65t52.5 228v25q0 42 -0.5 62t-3 50.5t-8.5 45.5t-17 32t-28.5 25.5t-41.5 11.5q-57 8 -118 -15.5t-95 -80.5q46 10 81.5 -21.5t35.5 -79.5q0 -45 -29 -76.5t-71 -31.5q-45 0 -72 37t-27 92q0 34 16 72.5t47.5 76t89.5 62t132 24.5q179 0 273.5 -87.5 t89.5 -211.5q-5 -107 -82.5 -198t-214.5 -129q135 -21 243.5 -125t108.5 -228q0 -160 -117.5 -265t-316.5 -105q-75 0 -137 27.5t-98.5 69t-56.5 85t-20 80.5z" />
<glyph unicode="4" horiz-adv-x="1011" d="M51 395v27q96 263 258 513.5t344 393.5h68v-885h121q9 0 15.5 7t6.5 16v98q0 7 5.5 12t11.5 5h22q6 0 11.5 -5t5.5 -12v-311q0 -7 -5.5 -12.5t-11.5 -5.5h-22q-6 0 -11.5 5.5t-5.5 12.5v98q0 9 -6.5 16t-15.5 7h-121v-283q0 -9 6.5 -15.5t15.5 -6.5h99q9 0 14.5 -6.5 t5.5 -14.5v-26q0 -9 -5.5 -16t-14.5 -7h-502q-9 0 -16 7t-7 16v26q0 8 7 14.5t16 6.5h98q9 0 16 6.5t7 15.5v283h-387q-9 0 -16 6t-7 14zM135 444h326v568q-204 -261 -326 -568z" />
<glyph unicode="5" horiz-adv-x="907" d="M61 254q0 53 27 86t78 33q43 0 73.5 -35t30.5 -86q0 -39 -32 -71.5t-68 -30.5q27 -53 76 -78t102 -25q39 0 69 11t49.5 27t33 45t20.5 52.5t10.5 63t4 62.5t0.5 63v19v52.5t-3.5 58t-9.5 63.5t-19 59t-31.5 54t-48 39.5t-66.5 25t-89 0.5t-114 -25q-6 0 -12 5t-5 13 l19 455q2 39 31 82t63 43h360q9 0 16 6.5t7 15.5v49h33q9 0 15.5 -6.5t6.5 -15.5l6 -174q0 -38 -29.5 -81.5t-64.5 -43.5h-395l-10 -281q116 21 206 17.5t158 -33.5t115 -72t76 -98t42 -112.5t13 -114.5q0 -114 -63 -205t-158 -138t-199 -48q-79 0 -143 26t-102.5 67.5 t-58.5 88t-20 92.5z" />
<glyph unicode="6" horiz-adv-x="1042" d="M123 514q5 105 32 203.5t68.5 176t94.5 146.5t108.5 119t113 90t105 63.5t86.5 35.5q22 7 29 -13l12 -24q8 -19 -12 -29q-74 -42 -132.5 -97.5t-94.5 -110.5t-60.5 -116.5t-35 -113.5t-13.5 -103q78 64 166 64q67 0 123.5 -24.5t94 -65.5t63.5 -95t37.5 -111.5 t11.5 -117.5q0 -112 -56.5 -207t-150.5 -149.5t-201 -54.5q-94 0 -165.5 31.5t-114.5 82.5t-69.5 122.5t-34.5 144t-5 153.5zM383 391q0 -69 1 -109.5t5.5 -83t12.5 -65t22.5 -41.5t36 -26t51.5 -7q76 0 103.5 73t27.5 259t-23 258t-90 72q-21 0 -45 -18.5t-47.5 -55.5 t-39 -104t-15.5 -152z" />
<glyph unicode="7" horiz-adv-x="847" d="M61 1315h633q33 0 62.5 -43.5t29.5 -81.5q-81 -149 -186 -385.5t-141 -362.5q-28 -138 4 -227q55 -44 55 -109q0 -62 -34.5 -96.5t-84.5 -34.5q-53 0 -79.5 44t-26.5 112q0 108 51 248q21 65 51 139t73.5 165t66 137t73.5 144l51 99l-481 2q-17 0 -32 -41.5t-15 -79.5 v-82h-33q-9 0 -14.5 7t-5.5 16z" />
<glyph unicode="8" horiz-adv-x="1060" d="M113 365q0 114 83 212t189 134q-85 32 -155 115t-70 175q0 104 54.5 181.5t137 114.5t178.5 38q70 -1 135.5 -23t118.5 -63t85 -105.5t32 -142.5q0 -92 -70.5 -175t-156.5 -115q107 -36 190.5 -134t83.5 -212q0 -90 -35.5 -164.5t-95 -121.5t-133.5 -72t-154 -25 q-108 0 -201 42.5t-154.5 131.5t-61.5 209zM399 365q0 -177 25 -242.5t106 -65.5q80 0 104.5 66t24.5 242q0 175 -24.5 241t-104.5 66q-81 0 -106 -66t-25 -241zM422 1001q0 -149 20 -203.5t88 -54.5q67 0 87 54.5t20 203.5q0 150 -20 204.5t-87 54.5q-69 0 -88.5 -54 t-19.5 -205z" />
<glyph unicode="9" horiz-adv-x="1042" d="M123 924q0 113 56 208t149.5 149t201.5 54q93 0 164.5 -31.5t115 -83t69.5 -122.5t34.5 -143.5t4.5 -153.5q-7 -145 -56 -277t-118 -223t-152.5 -164.5t-154 -113t-128.5 -56.5q-18 -7 -28 13l-11 24q-7 18 11 29q92 52 159 122.5t103 145t53 140.5t20 132 q-74 -63 -165 -63q-84 0 -149 37t-103 98t-57 132t-19 147zM399 924q0 -187 22.5 -258.5t90.5 -71.5q20 0 43.5 18.5t47 55.5t39 104t15.5 152q0 70 -1 109.5t-5 83t-12 65t-22.5 40.5t-35.5 26t-51 7q-77 0 -104 -72t-27 -259z" />
<glyph unicode=":" horiz-adv-x="577" d="M164 106q0 53 36.5 91.5t88.5 38.5t88.5 -38.5t36.5 -91.5q0 -54 -36.5 -91.5t-88.5 -37.5t-88.5 37.5t-36.5 91.5zM164 565q0 54 36.5 91.5t88.5 37.5t88.5 -37.5t36.5 -91.5t-36.5 -91.5t-88.5 -37.5t-88.5 37.5t-36.5 91.5z" />
<glyph unicode=";" horiz-adv-x="614" d="M154 111q0 53 36 93t99 40q70 0 120.5 -49t51.5 -134q1 -41 -5 -79.5t-20 -71t-27.5 -57.5t-36 -51t-35.5 -40t-36.5 -36t-28.5 -27q-15 -15 -30 -6l-15 10q-6 5 -7 14t3 17q25 27 48.5 57.5t51 75.5t39 93.5t0.5 90.5q-4 -26 -32.5 -47.5t-53.5 -21.5q-57 0 -89.5 38 t-32.5 91zM154 565q0 54 36.5 91.5t88.5 37.5t88 -37.5t36 -91.5t-36 -91.5t-88 -37.5t-88.5 37.5t-36.5 91.5z" />
<glyph unicode="&#x3c;" horiz-adv-x="882" d="M205 553q0 10 6 16l494 486q6 6 15 6t15 -6l25 -27q12 -12 0 -31l-262 -444l262 -444q12 -19 0 -31l-25 -27q-6 -6 -15 -6t-15 6l-494 486q-6 9 -6 16z" />
<glyph unicode="=" horiz-adv-x="909" d="M205 371v39q0 9 6.5 15.5t15.5 6.5h457q9 0 15 -6.5t6 -15.5v-39q0 -9 -6 -16t-15 -7h-457q-9 0 -15.5 7t-6.5 16zM205 696v39q0 9 6.5 16t15.5 7h457q9 0 15 -7t6 -16v-39q0 -9 -6 -15.5t-15 -6.5h-457q-9 0 -15.5 6.5t-6.5 15.5z" />
<glyph unicode="&#x3e;" horiz-adv-x="882" d="M123 78q-12 12 0 31l262 444l-262 444q-12 19 0 31l24 27q6 6 15.5 6t15.5 -6l494 -486q6 -6 6 -16q0 -7 -6 -16l-494 -486q-6 -6 -15.5 -6t-15.5 6z" />
<glyph unicode="?" horiz-adv-x="1058" d="M143 1075q0 95 90.5 175.5t251.5 86.5q62 1 117.5 -6.5t108.5 -28t90.5 -53.5t60.5 -86.5t23 -122.5q0 -61 -34.5 -124.5t-77 -106.5t-107 -106t-97.5 -103q-56 -66 -75.5 -109.5t-20.5 -132.5q0 -8 -6.5 -14t-15.5 -6h-17q-9 0 -14.5 6t-5.5 14q-4 44 -13.5 108.5 t-14 103.5t-3 86t19 85t52.5 72q31 31 81 75t73.5 66.5t43.5 55t21 65.5q3 90 -53.5 137.5t-149.5 49.5q-111 0 -197 -74q101 -25 101 -123q0 -52 -35.5 -81.5t-83.5 -29.5q-54 0 -83.5 34t-29.5 87zM317 111q0 53 37 91t88 38q52 0 88.5 -38t36.5 -91q0 -54 -36.5 -91.5 t-88.5 -37.5q-51 0 -88 37.5t-37 91.5z" />
<glyph unicode="@" horiz-adv-x="1323" d="M82 629q-2 130 44 257t127.5 226.5t201 161.5t254.5 63q153 0 291 -80.5t196 -214.5q68 -151 33 -348q-22 -114 -64.5 -199.5t-92.5 -130t-95.5 -65t-85.5 -20.5q-63 0 -107.5 29t-50.5 77q-79 -113 -168 -113q-57 0 -98.5 36.5t-60 95t-22 132t14.5 148.5 q19 89 59.5 163t104 123t137.5 50q47 0 84.5 -21t51.5 -41q21 27 61 40t74 8q-1 -5 -14 -59.5t-24 -102t-26 -120t-25.5 -129t-17 -111t-4.5 -83.5q3 -43 24.5 -58t51 -5.5t60 30.5t53.5 48q41 47 74 130t46.5 190.5t-18.5 211.5q-41 134 -153 214.5t-253 80.5 q-96 0 -176 -38.5t-134 -102t-92 -147.5t-55.5 -174t-17.5 -183q-2 -227 91 -378t278 -181q122 -19 232 21t221 130q11 7 20 -2l8 -12q8 -8 0 -20q-105 -99 -239.5 -144t-276.5 -22q-225 35 -371 217t-151 422zM545 450q18 -98 67 -104q21 -1 43 21t70 90q6 84 31.5 222.5 t52.5 229.5q-38 29 -73 30.5t-61 -21t-48 -54.5t-37.5 -73t-24.5 -72t-14 -57q-24 -114 -6 -212z" />
<glyph unicode="A" d="M-41 23v26q0 8 7 14.5t16 6.5h94q21 0 28 22l404 1221q7 22 22 22h43q16 0 23 -22l426 -1225q11 -18 29 -18h88q9 0 15.5 -6.5t6.5 -14.5v-26q0 -9 -6.5 -16t-15.5 -7h-500q-9 0 -16 7t-7 16v26q0 8 7 14.5t16 6.5h88q9 0 14 6t2 14l-110 324h-340l-107 -322 q-3 -9 2.5 -15.5t14.5 -6.5h82q9 0 15.5 -6.5t6.5 -14.5v-26q0 -9 -6.5 -16t-15.5 -7h-303q-9 0 -16 7t-7 16zM319 494h287l-145 426z" />
<glyph unicode="B" horiz-adv-x="1183" d="M123 23v26q0 8 6.5 14.5t15.5 6.5h95q9 0 15.5 6.5t6.5 15.5v1131q0 9 -6.5 15.5t-15.5 6.5h-95q-9 0 -15.5 7t-6.5 16v24q0 9 6.5 16t15.5 7h471q176 0 295 -85.5t119 -238.5q0 -90 -65 -172t-160 -121q126 -33 211.5 -128t85.5 -212q0 -156 -106 -257t-294 -101h-557 q-9 0 -15.5 7t-6.5 16zM535 80h45q121 0 179 64.5t58 213.5q0 151 -67 222t-201 71h-14v-571zM535 729h14q106 0 152.5 62t46.5 200q0 137 -45.5 191.5t-153.5 54.5h-14v-508z" />
<glyph unicode="C" d="M63 657q0 191 64.5 343t191.5 242.5t297 90.5q93 0 172 -38t130 -107q28 47 28 115q0 9 7 15.5t16 6.5h26q9 0 16 -6.5t7 -15.5v-424q0 -9 -7 -16t-16 -7h-22q-9 0 -16 7t-7 16v7q0 68 -18 127q-20 62 -53 105t-76.5 74t-91 46t-95.5 15q-144 0 -201 -134.5t-57 -461.5 t57 -461.5t201 -134.5q61 0 119.5 24.5t107.5 69.5t79 119q29 71 28 156v6q0 9 7 16t16 7h22q9 0 16 -7t7 -16v-424q0 -9 -7 -14.5t-16 -5.5h-26q-9 0 -16 5.5t-7 14.5q0 68 -28 115q-51 -69 -130 -107t-172 -38q-128 0 -233 52t-174.5 143t-107.5 214.5t-38 265.5z" />
<glyph unicode="D" horiz-adv-x="1314" d="M123 23v26q0 8 6.5 14.5t15.5 6.5h95q9 0 15.5 6.5t6.5 15.5v1131q0 9 -6.5 15.5t-15.5 6.5h-95q-9 0 -15.5 7t-6.5 16v24q0 9 6.5 16t15.5 7h572q102 0 199 -51.5t171 -138.5t119 -210t45 -258t-45 -258t-119 -209.5t-171 -138t-199 -51.5h-572q-9 0 -15.5 7t-6.5 16z M535 80h100q319 0 319 577q0 580 -319 580h-100v-1157z" />
<glyph unicode="E" horiz-adv-x="1169" d="M123 23v26q0 8 6.5 14.5t15.5 6.5h95q9 0 15.5 6.5t6.5 15.5v1131q0 9 -6.5 15.5t-15.5 6.5h-95q-9 0 -15.5 7t-6.5 16v24q0 9 6.5 16t15.5 7h885v-301q0 -9 -6.5 -16t-15.5 -7h-27q-8 0 -14 7t-6 16v102q0 38 -15.5 79.5t-32.5 41.5h-378v-504h208q15 0 28 37t13 72v18 q0 9 6.5 15t14.5 6h24q8 0 14.5 -6t6.5 -15v-364q0 -8 -7 -14.5t-14 -6.5h-24q-7 0 -14 6.5t-7 14.5v49q0 35 -13 71.5t-28 36.5h-208v-573h426q17 0 32 41t15 78v131q0 9 5.5 15.5t14.5 6.5h27q9 0 15.5 -6.5t6.5 -15.5v-330h-932q-9 0 -15.5 7t-6.5 16z" />
<glyph unicode="F" horiz-adv-x="1091" d="M123 23v26q0 8 6.5 14.5t15.5 6.5h95q9 0 15.5 6.5t6.5 15.5v1131q0 9 -6.5 15.5t-15.5 6.5h-95q-9 0 -15.5 7t-6.5 16v24q0 9 6.5 16t15.5 7h906v-301q0 -9 -7 -16t-16 -7h-27q-9 0 -14.5 7t-5.5 16v102q0 38 -15 79.5t-32 41.5h-399v-504h227q18 0 32.5 40.5t14.5 78.5 v8q0 9 6 15t14 6h25q8 0 13 -6t5 -15v-379q0 -20 -18 -20h-25q-8 0 -14 5.5t-6 14.5v51q0 39 -14.5 80t-32.5 41h-227v-561q0 -9 6.5 -15.5t15.5 -6.5h100q9 0 15 -6.5t6 -14.5v-26q0 -9 -6 -16t-15 -7h-512q-9 0 -15.5 7t-6.5 16z" />
<glyph unicode="G" horiz-adv-x="1183" d="M63 657q0 191 64.5 343t191.5 242.5t297 90.5q93 0 172 -38t130 -107q28 47 28 115q0 9 7 15.5t16 6.5h26q9 0 16 -6.5t7 -15.5v-424q0 -9 -7 -16t-16 -7h-22q-9 0 -16 7t-7 16v7q0 68 -18 127q-20 62 -53 105t-76.5 74t-91 46t-95.5 15q-144 0 -201 -134.5t-57 -461.5 t57 -461.5t201 -134.5q105 0 154.5 77t63.5 241q-4 14 -21 14h-111q-9 0 -15.5 7t-6.5 16v26q0 9 6.5 16t15.5 7h474q9 0 14.5 -7t5.5 -16v-26q0 -9 -5.5 -16t-14.5 -7h-99q-17 -191 -150 -301t-311 -110q-128 0 -233 52t-174.5 143t-107.5 214.5t-38 265.5z" />
<glyph unicode="H" horiz-adv-x="1439" d="M123 23v26q0 8 6.5 14.5t15.5 6.5h95q9 0 15.5 6.5t6.5 15.5v1131q0 9 -6.5 15.5t-15.5 6.5h-95q-9 0 -15.5 7t-6.5 16v24q0 9 6.5 16t15.5 7h502q9 0 16 -7t7 -16v-24q0 -9 -7 -16t-16 -7h-90q-9 0 -15.5 -6.5t-6.5 -15.5v-490h372v490q0 9 -6.5 15.5t-15.5 6.5h-92 q-9 0 -16 7t-7 16v24q0 9 7 16t16 7h503q9 0 15 -7t6 -16v-24q0 -9 -6 -16t-15 -7h-96q-9 0 -15.5 -6.5t-6.5 -15.5v-1131q0 -9 6.5 -15.5t15.5 -6.5h96q9 0 15 -6.5t6 -14.5v-26q0 -9 -6 -16t-15 -7h-503q-9 0 -16 7t-7 16v26q0 8 7 14.5t16 6.5h92q9 0 15.5 6.5t6.5 15.5 v561h-372v-561q0 -9 6.5 -15.5t15.5 -6.5h90q9 0 16 -6.5t7 -14.5v-26q0 -9 -7 -16t-16 -7h-502q-9 0 -15.5 7t-6.5 16z" />
<glyph unicode="I" horiz-adv-x="800" d="M123 23v26q0 8 6.5 14.5t15.5 6.5h97q22 0 22 22v1131q0 22 -22 22h-97q-9 0 -15.5 7t-6.5 16v24q0 9 6.5 16t15.5 7h512q9 0 15 -7t6 -16v-24q0 -9 -6 -16t-15 -7h-98q-9 0 -15.5 -6.5t-6.5 -15.5v-1131q0 -9 6.5 -15.5t15.5 -6.5h98q9 0 15 -6.5t6 -14.5v-26 q0 -9 -6 -16t-15 -7h-512q-9 0 -15.5 7t-6.5 16z" />
<glyph unicode="J" horiz-adv-x="813" d="M39 -82q10 29 37 47q21 13 48 13q9 0 19 -1q48 -6 70 -47q14 -25 14 -53q0 -17 -5 -34q-14 -46 -56 -64q34 -15 63 -15q19 0 33 6t22.5 19.5t14 25t7 34.5t2 34.5t0 39t-0.5 34.5v1266q0 9 -6.5 15.5t-15.5 6.5h-105q-9 0 -15.5 7t-6.5 16v24q0 9 6.5 16t15.5 7h508 q9 0 16 -7t7 -16v-24q0 -9 -7 -16t-16 -7h-88q-9 0 -15.5 -6.5t-6.5 -15.5v-1024q0 -286 -76 -392q-40 -58 -120 -87q-68 -24 -131 -24q-11 0 -22 1q-80 3 -137 51q-61 53 -61 119q0 25 8 51z" />
<glyph unicode="K" horiz-adv-x="1294" d="M123 23v26q0 8 6.5 14.5t15.5 6.5h88q9 0 16 6.5t7 15.5v1131q0 9 -7 15.5t-16 6.5h-88q-9 0 -15.5 7t-6.5 16v24q0 9 6.5 16t15.5 7h482q9 0 15.5 -7t6.5 -16v-24q0 -9 -6.5 -16t-15.5 -7h-76q-10 0 -16.5 -6.5t-6.5 -15.5v-1131q0 -9 6.5 -15.5t16.5 -6.5h76 q9 0 15.5 -6.5t6.5 -14.5v-26q0 -9 -6.5 -16t-15.5 -7h-482q-9 0 -15.5 7t-6.5 16zM535 641l434 582q7 9 5 15.5t-11 6.5h-91q-9 0 -15.5 7t-6.5 16v24q0 9 6.5 16t15.5 7h316q9 0 14.5 -7t5.5 -16v-24q0 -9 -5.5 -16t-14.5 -7h-82q-21 0 -39 -22l-313 -426l422 -705 q4 -10 15 -16t21 -6h82q9 0 15 -6.5t6 -14.5v-26q0 -9 -6 -16t-15 -7h-491q-9 0 -16 7t-7 16v26q0 8 7 14.5t16 6.5h74q9 0 11.5 6.5t-3.5 15.5z" />
<glyph unicode="L" horiz-adv-x="1099" d="M123 23v26q0 8 6.5 14.5t15.5 6.5h95q9 0 15.5 6.5t6.5 15.5v1131q0 9 -6.5 15.5t-15.5 6.5h-95q-9 0 -15.5 7t-6.5 16v24q0 9 6.5 16t15.5 7h521q9 0 15.5 -7t6.5 -16v-24q0 -9 -6.5 -16t-15.5 -7h-109q-9 0 -15.5 -6.5t-6.5 -15.5v-1143h411q18 0 32.5 40.5t14.5 78.5 v131q0 9 7 15.5t16 6.5h26q9 0 15 -6.5t6 -15.5v-330h-918q-9 0 -15.5 7t-6.5 16z" />
<glyph unicode="M" horiz-adv-x="1624" d="M123 23v26q0 8 6.5 14.5t15.5 6.5h91q9 0 15.5 6.5t6.5 15.5v1131q0 9 -6.5 15.5t-15.5 6.5h-91q-9 0 -15.5 7t-6.5 16v24q0 9 6.5 16t15.5 7h314q26 0 50.5 -26.5t35.5 -61.5l264 -817l270 817q11 34 36.5 61t51.5 27h312q9 0 15.5 -7t6.5 -16v-24q0 -9 -6.5 -16 t-15.5 -7h-95q-9 0 -15.5 -6.5t-6.5 -15.5v-1131q0 -9 6.5 -15.5t15.5 -6.5h95q9 0 15.5 -6.5t6.5 -14.5v-26q0 -9 -6.5 -16t-15.5 -7h-508q-9 0 -16 7t-7 16v26q0 8 7 14.5t16 6.5h98q9 0 15 6.5t6 15.5l2 918l-342 -1008q-7 -22 -23 -22h-37q-15 0 -22 22l-330 1008v-918 q0 -9 6.5 -15.5t15.5 -6.5h95q9 0 15.5 -6.5t6.5 -14.5v-26q0 -9 -6.5 -16t-15.5 -7h-310q-9 0 -15.5 7t-6.5 16z" />
<glyph unicode="N" horiz-adv-x="1200" d="M59 23v26q0 8 7 14.5t16 6.5h90q9 0 16 6.5t7 15.5v1131q0 9 -7 15.5t-16 6.5h-90q-9 0 -16 7t-7 16v24q0 9 7 16t16 7h321q26 0 52.5 -25.5t46.5 -60.5l426 -742v736q0 9 -7 15.5t-16 6.5h-96q-9 0 -16 7t-7 16v24q0 9 7 16t16 7h311q8 0 14.5 -7t6.5 -16v-24 q0 -9 -6.5 -16t-14.5 -7h-92q-9 0 -15.5 -6.5t-6.5 -15.5v-1221q0 -9 -7 -15.5t-16 -6.5h-27q-3 0 -6 1t-5.5 4t-3.5 5t-3.5 6t-3.5 6l-660 1110v-1020q0 -9 7 -15.5t16 -6.5h94q9 0 16 -6.5t7 -14.5v-26q0 -9 -7 -16t-16 -7h-309q-9 0 -16 7t-7 16z" />
<glyph unicode="O" horiz-adv-x="1230" d="M63 657q0 191 64.5 343t191.5 242.5t297 90.5q169 0 295.5 -90.5t191 -242.5t64.5 -343q0 -142 -38 -265.5t-107.5 -214.5t-174 -143t-231.5 -52q-128 0 -233 52t-174.5 143t-107.5 214.5t-38 265.5zM358 657q0 -327 57 -461.5t201 -134.5q142 0 199 135t57 461t-57 461 t-199 135q-144 0 -201 -134.5t-57 -461.5z" />
<glyph unicode="P" horiz-adv-x="1183" d="M123 23v26q0 8 6.5 14.5t15.5 6.5h95q9 0 15.5 6.5t6.5 15.5v1131q0 9 -6.5 15.5t-15.5 6.5h-95q-9 0 -15.5 7t-6.5 16v24q0 9 6.5 16t15.5 7h517q190 0 315 -109.5t125 -263.5q0 -76 -29.5 -144.5t-85 -122t-143.5 -85t-197 -31.5h-112v-467q0 -9 6.5 -15.5t15.5 -6.5 h111q9 0 14.5 -6.5t5.5 -14.5v-26q0 -9 -5.5 -16t-14.5 -7h-523q-9 0 -15.5 7t-6.5 16zM535 637h30q130 0 191 75.5t61 229.5q0 152 -58.5 223.5t-178.5 71.5h-45v-600z" />
<glyph unicode="Q" horiz-adv-x="1230" d="M63 657q0 191 64.5 343t191.5 242.5t297 90.5q169 0 295.5 -90.5t191 -242.5t64.5 -343q0 -250 -111.5 -430.5t-307.5 -230.5v-123v-23q0 -61 9 -100q11 -45 48 -57q10 -3 21 -3q25 0 59 15q15 6 24 -12l4 -15q4 -19 -12 -22q-67 -27 -115 -27q-105 0 -174.5 49.5 t-99 129.5t-29.5 188q-196 50 -308 230.5t-112 430.5zM358 657q0 -327 57 -461.5t201 -134.5q142 0 199 135t57 461t-57 461t-199 135q-144 0 -201 -134.5t-57 -461.5z" />
<glyph unicode="R" horiz-adv-x="1236" d="M123 23v26q0 8 6.5 14.5t15.5 6.5h95q9 0 15.5 6.5t6.5 15.5v1131q0 9 -6.5 15.5t-15.5 6.5h-95q-9 0 -15.5 7t-6.5 16v24q0 9 6.5 16t15.5 7h463q114 0 216 -37.5t170.5 -115t68.5 -179.5q0 -95 -78 -179t-182 -116q62 -18 114 -55t82 -82q15 -23 25.5 -54t16 -56.5 t8 -64t3 -56.5t0 -54t-0.5 -39v-23q0 -62 9 -100q11 -46 48 -57q8 -3 18 -3q24 0 62 15q17 7 24 -12l5 -14q1 -7 -3 -14t-10 -9q-65 -26 -114 -26q-81 0 -138 16.5t-92 45t-56 77.5t-29 103.5t-11 133.5q-4 146 -59.5 218.5t-147.5 72.5h-22v-559q0 -9 6.5 -15.5t15.5 -6.5 h98q9 0 16 -6.5t7 -14.5v-26q0 -9 -7 -16t-16 -7h-510q-9 0 -15.5 7t-6.5 16zM535 729h6q235 0 235 254t-237 254h-4v-508z" />
<glyph unicode="S" horiz-adv-x="1024" d="M123 952v5q0 88 32 161q33 75 88.5 123t125.5 74q65 24 134 24h11q175 -7 281 -133v92q0 9 6.5 15t15.5 6h27q9 0 15.5 -6t6.5 -15v-315q0 -9 -6.5 -15.5t-15.5 -6.5h-23q-9 0 -14.5 6.5t-5.5 15.5q-19 129 -102 197.5t-185 68.5h-7q-87 -1 -147 -51q-64 -52 -65 -145 q0 -42 12 -74.5t30 -53t48.5 -38t57 -27.5t67.5 -24l27 -9q199 -68 303 -180t104 -278v-5q0 -92 -34 -167q-35 -77 -93 -124t-130 -71q-66 -22 -138 -22h-12q-99 2 -186.5 46.5t-141.5 127.5v-136q0 -9 -7 -15.5t-16 -6.5h-24q-9 0 -16 6.5t-7 15.5v383q0 9 7 16t16 7h20 q9 0 16 -7t7 -16q39 -159 125.5 -239.5t187.5 -83.5h9q85 0 151 54q68 58 76 155q1 9 1 18q0 42 -16 74q-19 39 -79.5 77.5t-170.5 73.5q-181 56 -272.5 168t-93.5 254z" />
<glyph unicode="T" horiz-adv-x="1103" d="M51 983v332h1002v-332q0 -9 -7 -15.5t-16 -6.5h-26q-9 0 -15 6.5t-6 15.5v74q0 57 -23.5 118.5t-48.5 61.5h-223v-1145q0 -9 7 -15.5t16 -6.5h102q7 0 14 -7t7 -14v-26q0 -9 -6.5 -16t-14.5 -7h-522q-9 0 -15 7t-6 16v26q0 8 6 14.5t15 6.5h102q9 0 16 6.5t7 15.5v1145 h-226q-25 0 -47 -61.5t-22 -118.5v-74q0 -9 -6.5 -15.5t-14.5 -6.5h-26q-9 0 -16 6.5t-7 15.5z" />
<glyph unicode="U" horiz-adv-x="1331" d="M88 1268v24q0 9 7 16t16 7h505q9 0 16 -7t7 -16v-24q0 -9 -7 -16t-16 -7h-94q-9 0 -15.5 -6.5t-6.5 -15.5v-852q0 -84 26 -152t87 -113t151 -45q91 0 153 45t88.5 113t26.5 152v852q0 9 -6.5 15.5t-15.5 6.5h-101q-9 0 -15.5 7t-6.5 16v24q0 9 6.5 16t15.5 7h312 q9 0 15.5 -7t6.5 -16v-24q0 -9 -6.5 -16t-15.5 -7h-86q-9 0 -16 -6.5t-7 -15.5v-842q0 -66 -10.5 -120.5t-39 -108t-75 -89.5t-122 -58.5t-175.5 -22.5q-222 0 -342.5 107.5t-120.5 324.5v809q0 9 -6.5 15.5t-15.5 6.5h-94q-9 0 -16 7t-7 16z" />
<glyph unicode="V" horiz-adv-x="1099" d="M-51 1268v24q0 9 6.5 16t15.5 7h500q9 0 16 -7t7 -16v-24q0 -9 -7 -16t-16 -7h-88q-9 0 -14 -6.5t-2 -13.5l282 -830l275 830q3 7 -2.5 13.5t-14.5 6.5h-82q-9 0 -15.5 7t-6.5 16v24q0 9 6.5 16t15.5 7h303q9 0 16 -7t7 -16v-24q0 -9 -7 -16t-16 -7h-94q-21 0 -28 -22 l-404 -1221q-7 -22 -22 -22h-43q-16 0 -23 22l-426 1225q-11 18 -29 18h-88q-9 0 -15.5 7t-6.5 16z" />
<glyph unicode="W" horiz-adv-x="1529" d="M-51 1268v24q0 9 6.5 16t15.5 7h1157q9 0 16 -7t7 -16v-24q0 -9 -7 -16t-16 -7h-94q-21 0 -28 -22l-103 -310l178 -518l273 830q3 7 -2.5 13.5t-14.5 6.5h-80q-9 0 -15.5 7t-6.5 16v24q0 9 6.5 16t15.5 7h304q9 0 14.5 -7t5.5 -16v-24q0 -9 -5.5 -16t-14.5 -7h-95 q-21 0 -28 -22l-406 -1221q-7 -22 -22 -22h-43q-12 0 -23 22l-176 506l-166 -506q-7 -22 -22 -22h-43q-16 0 -23 22l-426 1225q-11 18 -29 18h-88q-9 0 -15.5 7t-6.5 16zM367 1225l282 -830l78 234l-209 598q-7 18 -29 18h-18h-70h-18q-9 -1 -14 -7q-3 -4 -3 -8q0 -2 1 -5z M793 1225l69 -195l66 195q1 2 1 5q1 4 -3 8q-6 6 -15 7h-4h-98q-9 -1 -14 -7q-3 -4 -3 -8q0 -2 1 -5z" />
<glyph unicode="X" horiz-adv-x="1077" d="M-10 23v26q0 8 6.5 14.5t15.5 6.5h84q20 0 33 20l309 481l-291 656q-14 18 -32 18h-103q-9 0 -15.5 7t-6.5 16v24q0 9 6.5 16t15.5 7h494q9 0 15.5 -7t6.5 -16v-24q0 -9 -6.5 -16t-15.5 -7h-70q-9 0 -12.5 -5.5t0.5 -14.5l178 -402l258 402q7 20 -12 20h-90q-9 0 -16 7 t-7 16v24q0 9 7 16t16 7h307q9 0 15.5 -7t6.5 -16v-24q0 -9 -6.5 -16t-15.5 -7h-80q-22 0 -35 -20l-311 -486l289 -647q3 -9 13.5 -15.5t19.5 -6.5h104q9 0 15.5 -6.5t6.5 -14.5v-26q0 -9 -6.5 -16t-15.5 -7h-494q-9 0 -15.5 7t-6.5 16v26q0 8 6.5 14.5t15.5 6.5h68 q9 0 13 6t1 14l-178 397l-254 -397q-4 -9 -1 -14.5t11 -5.5h88q9 0 16 -6.5t7 -14.5v-26q0 -9 -7 -16t-16 -7h-307q-9 0 -15.5 7t-6.5 16z" />
<glyph unicode="Y" horiz-adv-x="1077" d="M-51 1268v24q0 9 6.5 16t15.5 7h506q9 0 16 -7t7 -16v-24q0 -9 -7 -16t-16 -7h-69q-20 0 -13 -20l254 -502l256 502q3 9 -0.5 14.5t-11.5 5.5h-96q-9 0 -15 7t-6 16v24q0 9 6 16t15 7h309q9 0 15.5 -7t6.5 -16v-24q0 -9 -6.5 -16t-15.5 -7h-80q-9 0 -20 -6.5t-15 -15.5 l-301 -596v-535q0 -9 7 -15.5t16 -6.5h102q9 0 16 -6.5t7 -14.5v-26q0 -9 -7 -16t-16 -7h-520q-9 0 -16 7t-7 16v26q0 8 7 14.5t16 6.5h102q9 0 16 6.5t7 15.5v512l-311 619q-15 22 -35 22h-103q-9 0 -15.5 7t-6.5 16z" />
<glyph unicode="Z" horiz-adv-x="991" d="M72 23v26l528 1188h-389q-25 0 -47.5 -61.5t-22.5 -118.5v-74q0 -9 -5.5 -15.5t-14.5 -6.5h-27q-9 0 -15.5 6.5t-6.5 15.5v332h807q9 0 14.5 -7t5.5 -16v-24l-526 -1188h415q25 0 47.5 61t22.5 119v72q0 9 7 15.5t16 6.5h26q9 0 16 -6.5t7 -15.5v-332h-836q-9 0 -15.5 7 t-6.5 16z" />
<glyph unicode="[" horiz-adv-x="704" d="M246 -195q8 333 8 793t-8 791v8q0 9 6.5 15.5t15.5 6.5h363q9 0 15.5 -6.5t6.5 -15.5v-27q0 -8 -6.5 -14t-15.5 -6h-162l10 -17v-1472l-10 -15h162q9 0 15.5 -6.5t6.5 -15.5v-27q0 -9 -6.5 -15.5t-15.5 -6.5h-363q-9 0 -15.5 6.5t-6.5 15.5v8z" />
<glyph unicode="\" horiz-adv-x="593" d="M41 1300q-7 22 14 29l41 12q22 7 29 -14l418 -1366q4 -22 -17 -29l-41 -12q-8 -3 -15.5 1t-10.5 13z" />
<glyph unicode="]" horiz-adv-x="704" d="M51 -176q0 9 7 15.5t16 6.5h162l-11 15v1472l11 17h-162q-9 0 -16 6t-7 14v27q0 9 7 15.5t16 6.5h362q9 0 16 -6.5t7 -15.5v-8q-10 -310 -10 -791t10 -793v-8q0 -9 -7 -15.5t-16 -6.5h-362q-9 0 -16 6.5t-7 15.5v27z" />
<glyph unicode="^" horiz-adv-x="806" d="M100.5 821q-2.5 9 1.5 17l283 495q7 13 18 13q13 0 19 -13l283 -495q4 -8 1.5 -17t-10.5 -14l-30 -16q-15 -9 -29 8l-234 235l-231 -235q-17 -17 -31 -8l-30 16q-8 5 -10.5 14z" />
<glyph unicode="_" horiz-adv-x="653" d="M0 0h653v-100h-653v100z" />
<glyph unicode="`" horiz-adv-x="864" d="M95 1313q-10 27 5 55q15 26 45.5 31t59.5 -13q19 -10 56.5 -45t68.5 -59q43 -36 168 -111q15 -9 8 -28l-8 -13q-5 -8 -13 -10t-16 2q-120 66 -180 90q-34 13 -84.5 29t-69.5 27q-30 18 -40 45z" />
<glyph unicode="a" horiz-adv-x="948" d="M82 158q0 281 455 286v181q0 72 -28.5 105.5t-76.5 33.5q-70 0 -125 -47q-11 -11 0 -23q29 -24 35 -64l2 -18q0 -32 -18 -58q-22 -34 -64 -42q-9 -2 -17 -2q-25 0 -46 14q-27 18 -37 47q-8 24 -8 48q0 30 14 59q24 51 74.5 84t109 52.5t107.5 19.5q43 0 84 -6t85.5 -23.5 t77 -44.5t53.5 -73t21 -105v-494q0 -31 17 -31q13 -3 26 11q27 18 45 36q4 4 12 4t13 -4l14 -16q6 -5 6 -12.5t-6 -12.5q-67 -78 -176 -78q-12 0 -25 1h-3.5h-2.5q-75 14 -110 42t-49 68q-67 -62 -125 -87t-133 -25q-92 0 -146.5 46.5t-54.5 127.5zM319 178q3 -48 25 -72 q21 -24 51 -24h3q32 1 71 24q35 25 68 54v229q-27 -1 -51.5 -4.5t-58.5 -17t-57.5 -34.5t-38.5 -61q-12 -34 -13 -77q1 -8 1 -17z" />
<glyph unicode="b" horiz-adv-x="1036" d="M41 1272v22q0 21 20 21h357v-606q30 62 74.5 93.5t140.5 31.5q121 0 211 -125.5t90 -298.5q0 -175 -89.5 -299t-211.5 -127h-8q-63 0 -105 15q-44 16 -67.5 41.5t-49.5 74.5q0 -41 -20 -78t-57 -37h-260q-8 0 -14.5 5.5t-6.5 14.5v25q0 7 6.5 12.5t14.5 5.5h88 q7 0 13.5 6.5t6.5 14.5v1147q0 7 -6 13.5t-14 6.5h-93q-20 0 -20 21zM416 410q0 -168 47 -265.5t115 -97.5q59 0 79.5 78.5t20.5 284.5q0 204 -20.5 283t-79.5 79q-68 0 -115 -97.5t-47 -264.5z" />
<glyph unicode="c" horiz-adv-x="880" d="M102 410q0 112 44.5 208t130.5 156t196 60q137 0 225 -62q68 -48 98 -101q16 -28 15 -61q0 -29 -12 -61q-11 -31 -45 -52q-26 -16 -51 -16l-17 2q-48 11 -70 50q-16 27 -16 57q0 12 3 26q10 44 48 72q7 6 6.5 15.5t-6.5 15.5q-53 53 -149 53q-86 0 -111.5 -76t-25.5 -286 q0 -175 15.5 -251.5t65.5 -97.5q23 -10 50 -10q86 0 147 50t88 108q6 20 27 20h35q12 0 12 -8q0 -5 -4 -12q-42 -105 -119.5 -164t-208.5 -59q-112 0 -198 60t-129.5 155.5t-43.5 208.5z" />
<glyph unicode="d" horiz-adv-x="1030" d="M102 410q0 174 89.5 299t211.5 125q95 0 140 -32t73 -93l2 522q-4 20 -20 20h-98q-8 0 -14.5 6t-6.5 15v22q0 9 6.5 15t14.5 6h268q35 0 64.5 -43.5t29.5 -81.5v-1106q0 -8 6 -14.5t15 -6.5h88q7 0 12.5 -5.5t5.5 -12.5v-25q0 -20 -18 -20h-340v115q-19 -37 -35 -58.5 t-42 -40.5q-26 -18 -62 -26q-32 -7 -77 -6h-12q-121 2 -211 126.5t-90 299.5zM358 410q0 -207 20.5 -285t80.5 -78q67 0 114.5 98t47.5 265q0 166 -47.5 264t-114.5 98q-60 0 -80.5 -78.5t-20.5 -283.5z" />
<glyph unicode="e" horiz-adv-x="894" d="M82 410q0 172 97.5 294.5t260.5 129.5q16 1 31 1q163 1 247 -87q91 -96 93 -275q0 -9 -6 -14.5t-14 -5.5h-447v-43q0 -214 64 -304q28 -40 64 -50q16 -4 35 -4q24 0 52 7q107 28 172 150q8 20 27 20h37q7 0 10 -6.5t-2 -13.5q-40 -101 -120.5 -161t-186.5 -64h-15 q-87 0 -161 32q-80 34 -131 94.5t-79 138t-28 161.5zM346 516h209q6 43 6 79q0 28 -4 52q-8 62 -28 92.5t-60 30.5q-65 0 -92 -59q-28 -57 -31 -195z" />
<glyph unicode="f" horiz-adv-x="681" d="M41 776v23q0 7 5.5 12.5t12.5 5.5h142v62q0 72 1 101.5t9.5 79.5t26.5 89q76 167 283 167q12 0 24 -1q83 -3 145 -65q45 -45 45 -97q0 -22 -8 -45q-10 -29 -37 -47q-20 -13 -46 -13q-8 0 -17 1q-47 9 -68 48q-13 24 -13 50q0 15 4 31q13 42 54 59q-31 23 -67 23 q-23 1 -39.5 -5t-26.5 -19.5t-16 -26.5t-8 -35.5t-2.5 -35.5t-0.5 -38v-13v-270h164q8 0 14.5 -5.5t6.5 -12.5v-23q0 -7 -6.5 -12.5t-14.5 -5.5h-164v-674q0 -8 6 -14.5t15 -6.5h88q8 0 14 -5.5t6 -12.5v-25q0 -9 -6 -14.5t-14 -5.5h-465q-8 0 -14 5.5t-6 14.5v25 q0 7 6 12.5t14 5.5h92q8 0 14.5 6.5t6.5 14.5v674h-142q-7 0 -12.5 5t-5.5 13z" />
<glyph unicode="g" horiz-adv-x="976" d="M142 -187q67 54 184 74l20 -2q-77 -59 -94 -119q-6 -20 -6 -38q0 -35 22 -62q32 -42 96 -68q58 -24 127 -24h11q39 0 87 15.5t91.5 41.5t71.5 67q26 38 26 79v6q-4 111 -305 119q-46 2 -83 5.5t-82.5 11.5t-79 23.5t-63.5 37.5t-46.5 56.5t-16.5 78.5q0 136 152 176 q-50 42 -78.5 104.5t-28.5 134.5q0 127 92 215.5t230 88.5q146 0 227 -78q0 74 56 116q45 35 103 35q13 0 26 -2q62 -8 97 -56q20 -28 20 -59q0 -23 -11 -47q-12 -25 -35.5 -41t-54.5 -10q-52 9 -67 61q-5 17 -5 32q0 31 21 55q-24 5 -42.5 -5.5t-27.5 -23.5 q-9 -10 -15 -26.5t-7.5 -28.5t-3 -35t-2.5 -29q43 -75 43 -162q0 -128 -91.5 -216.5t-230.5 -88.5q-42 0 -95.5 10.5t-82.5 28.5q-42 -11 -59.5 -38.5t-4.5 -47.5q7 -10 13.5 -15.5t20 -8.5t20.5 -4t32 -1.5t37 -1.5q41 -2 160 -6q69 -2 123 -9.5t106.5 -27t87 -50.5 t55.5 -81.5t21 -117.5q0 -66 -25.5 -122.5t-67 -95.5t-95 -67.5t-108.5 -43t-109 -18.5q-45 -3 -86 -3q-145 0 -232 45q-108 55 -108 138q0 69 70 125zM373 465q0 -176 96 -176t96 176v129q0 176 -96 176t-96 -176v-129z" />
<glyph unicode="h" horiz-adv-x="1052" d="M41 1272v22q0 21 20 21h269q35 0 64.5 -43.5t29.5 -81.5v-524q24 43 42.5 68.5t48 51t70 37t95.5 11.5q26 0 54 -6t61 -23.5t58.5 -44t42.5 -73t17 -105.5v-498q0 -8 6 -14.5t13 -6.5h90q20 0 20 -18v-25q0 -20 -20 -20h-420q-18 0 -18 20v25q0 7 5 12.5t13 5.5h45 q9 0 15 6.5t6 14.5v522q0 74 -20 108q-17 28 -49 28q-5 0 -11 -1q-43 -8 -82 -66t-60.5 -133.5t-21.5 -140.5v-317q0 -8 5.5 -14.5t12.5 -6.5h47q9 0 15 -5t6 -13v-25q0 -20 -21 -20h-419q-8 0 -13.5 5.5t-5.5 14.5v25q0 7 5.5 12.5t13.5 5.5h88q9 0 14.5 6.5t5.5 14.5v1147 q0 8 -5.5 14t-14.5 6h-97q-20 0 -20 21z" />
<glyph unicode="i" horiz-adv-x="643" d="M82 20v25q0 18 20 18h97q9 0 14.5 6.5t5.5 14.5v651q0 8 -5.5 13.5t-14.5 5.5h-97q-9 0 -14.5 6t-5.5 14v25q0 8 5.5 14t14.5 6h269q35 0 64.5 -44.5t29.5 -82.5v-608q0 -8 5.5 -14.5t12.5 -6.5h99q20 0 20 -18v-25q0 -20 -20 -20h-480q-20 0 -20 20zM213 1149 q0 54 37 91.5t90 37.5t90 -37.5t37 -91.5t-37 -91.5t-90 -37.5t-90 37.5t-37 91.5z" />
<glyph unicode="j" horiz-adv-x="645" d="M-38 -347q-7 23 -7 45q0 24 8 48q10 29 37 46q19 13 43 13q10 0 20 -2q47 -9 68 -49q13 -25 13 -51q0 -16 -4 -32q-13 -43 -54 -60q36 -27 68 -27q27 0 44 14t23.5 43.5t8 50t1.5 58.5v8v977q0 8 -5.5 13.5t-14.5 5.5h-96q-9 0 -15 6t-6 14v25q0 8 6 14t15 6h268 q35 0 64.5 -44.5t29.5 -82.5v-733q0 -80 -5.5 -140.5t-25.5 -127.5t-54.5 -106.5t-97.5 -58.5q-36 -12 -79 -12q-33 0 -70 7q-73 15 -129 55q-40 29 -54 77zM227 1149q0 54 37 91.5t90 37.5t90 -37.5t37 -91.5t-37 -91.5t-90 -37.5t-90 37.5t-37 91.5z" />
<glyph unicode="k" horiz-adv-x="1056" d="M41 20v25q0 18 20 18h97q9 0 14.5 6.5t5.5 14.5v1147q0 8 -5.5 14t-14.5 6h-97q-20 0 -20 21v22q0 21 20 21h269q35 0 64.5 -43.5t29.5 -81.5v-1106q0 -8 5.5 -14.5t12.5 -6.5h27q7 0 12.5 -5.5t5.5 -12.5v-25q0 -20 -18 -20h-408q-20 0 -20 20zM428 436l313 301 q10 17 -4 17h-100q-8 0 -14.5 5.5t-6.5 14.5v25q0 7 6.5 12.5t14.5 5.5h328q8 0 14 -5.5t6 -12.5v-25q0 -9 -6 -14.5t-14 -5.5h-80q-20 0 -39 -19l-203 -194l260 -461q14 -17 35 -17h98q9 0 15 -5t6 -13v-25q0 -20 -21 -20h-438q-20 0 -20 20v25q0 18 20 18h29q7 0 9 5.5 t-3 13.5z" />
<glyph unicode="l" horiz-adv-x="602" d="M41 20v25q0 18 20 18h97q9 0 14.5 6.5t5.5 14.5v1147q0 8 -5.5 14t-14.5 6h-97q-20 0 -20 21v22q0 21 20 21h269q35 0 64.5 -43.5t29.5 -81.5v-1106q0 -8 5.5 -14.5t12.5 -6.5h99q20 0 20 -18v-25q0 -20 -20 -20h-480q-20 0 -20 20z" />
<glyph unicode="m" horiz-adv-x="1550" d="M82 774v25q0 8 5.5 14t14.5 6h363v-153q15 26 18.5 32t16.5 28t18.5 27.5t19.5 22t24 21.5t26.5 15t33 13t38.5 6t47 3q29 0 59.5 -8t64.5 -26t60.5 -54.5t38.5 -86.5q33 83 97 129t153 46q26 0 54 -6t60 -23.5t57 -44t41.5 -73t16.5 -105.5v-498q0 -8 6.5 -14.5 t14.5 -6.5h90q20 0 20 -18v-25q0 -20 -20 -20h-412q-18 0 -18 20v25q0 7 5 12.5t13 5.5h37q9 0 14.5 6.5t5.5 14.5v522q1 75 -17 108q-15 28 -45 28q-5 0 -11 -1q-42 -8 -78.5 -64.5t-56 -130.5t-19.5 -140v-322q0 -8 5.5 -14.5t12.5 -6.5h37q8 0 13.5 -5.5t5.5 -12.5v-25 q0 -9 -5.5 -14.5t-13.5 -5.5h-358q-8 0 -13.5 5.5t-5.5 14.5v25q0 7 5.5 12.5t13.5 5.5h37q9 0 14.5 6.5t5.5 14.5v522q0 75 -18 108q-15 28 -45 28q-5 0 -11 -1q-63 -11 -108 -122.5t-45 -217.5v-317q0 -8 5.5 -14.5t12.5 -6.5h35q9 0 15 -5t6 -13v-25q0 -20 -21 -20h-407 q-8 0 -13.5 5.5t-5.5 14.5v25q0 7 5.5 12.5t13.5 5.5h88q9 0 14.5 6.5t5.5 14.5v651q0 8 -5.5 13.5t-14.5 5.5h-97q-9 0 -14.5 6t-5.5 14z" />
<glyph unicode="n" horiz-adv-x="1093" d="M82 774v25q0 8 5.5 14t14.5 6h363v-153q24 43 42.5 68.5t48 51t70 37t95.5 11.5q26 0 54 -6t61 -23.5t58.5 -44t42.5 -73t17 -105.5v-498q0 -8 6 -14.5t13 -6.5h90q20 0 20 -18v-25q0 -20 -20 -20h-420q-18 0 -18 20v25q0 7 5.5 12.5t12.5 5.5h45q9 0 15 6.5t6 14.5v522 q-1 74 -21 108q-17 28 -48 28q-5 0 -11 -1q-43 -8 -82 -66t-60.5 -133.5t-21.5 -140.5v-317q0 -8 5.5 -14.5t12.5 -6.5h47q9 0 15 -5t6 -13v-25q0 -20 -21 -20h-419q-8 0 -13.5 5.5t-5.5 14.5v25q0 7 5.5 12.5t13.5 5.5h88q9 0 14.5 6.5t5.5 14.5v651q0 8 -5.5 13.5 t-14.5 5.5h-97q-9 0 -14.5 6t-5.5 14z" />
<glyph unicode="o" horiz-adv-x="966" d="M84 410q0 180 109 302t290 122t290.5 -122t109.5 -302q0 -182 -109.5 -304t-290.5 -122t-290 122t-109 304zM346 410q0 -211 25.5 -287t111.5 -76t112 76t26 287q0 210 -26 286t-112 76t-111.5 -76t-25.5 -286z" />
<glyph unicode="p" horiz-adv-x="1005" d="M41 -432q0 8 5.5 14t14.5 6h93q8 0 14 6t6 15v1124q0 9 -6 15t-14 6h-88q-8 0 -14.5 6.5t-6.5 13.5v25q0 7 6.5 13.5t14.5 6.5h337v-117q26 50 49.5 76t67.5 42q40 14 105 14h8q120 -2 210.5 -126.5t90.5 -297.5q0 -175 -90 -299.5t-211 -124.5q-51 0 -88 9t-61 27.5 t-38 38t-28 48.5v-500q0 -21 20 -21h97q20 0 20 -20v-25q0 -18 -20 -18l-474 -2q-9 0 -14.5 6t-5.5 14v25zM416 410q0 -168 47 -265.5t115 -97.5q59 0 79.5 78.5t20.5 284.5q0 204 -20.5 283t-79.5 79q-68 0 -115 -97t-47 -265z" />
<glyph unicode="q" horiz-adv-x="1005" d="M72 410q0 173 90 297.5t211 126.5h8q65 0 105 -14q44 -16 66.5 -42t47.5 -76l2 117h338q7 0 12.5 -6t5.5 -14v-25q0 -8 -5.5 -14t-12.5 -6h-88q-9 0 -15 -6t-6 -15v-1124q0 -9 6 -15t15 -6h92q8 0 14.5 -6.5t6.5 -13.5v-25q0 -7 -6.5 -13.5t-14.5 -6.5l-475 2 q-8 0 -14 5.5t-6 12.5v25q0 9 6 14.5t14 5.5h98q8 0 14.5 6t6.5 15l-2 500q-27 -60 -72.5 -91.5t-140.5 -31.5q-122 0 -211.5 124t-89.5 300zM328 410q0 -207 20 -285t80 -78q67 0 114.5 98t47.5 265t-47.5 264.5t-114.5 97.5q-60 0 -80 -78t-20 -284z" />
<glyph unicode="r" horiz-adv-x="849" d="M82 774v25q0 8 5.5 14t14.5 6h357v-149q40 83 94.5 124.5t114.5 41.5q81 0 126.5 -45.5t45.5 -106.5v-6q0 -48 -30 -82q-32 -36 -87 -37q-32 0 -57 21.5t-35 51t-3 63t34 55.5q-13 10 -28 10q-24 0 -54 -25q-47 -37 -84 -125.5t-37 -226.5v-299q0 -8 6.5 -14.5t13.5 -6.5 h96q8 0 13.5 -5.5t5.5 -12.5v-25q0 -9 -5.5 -14.5t-13.5 -5.5h-469q-8 0 -14 5.5t-6 14.5v25q0 7 6 12.5t14 5.5h89q7 0 13.5 6.5t6.5 14.5v649q0 9 -6 15t-14 6h-93q-9 0 -14.5 6t-5.5 14z" />
<glyph unicode="s" horiz-adv-x="782" d="M82 590q0 82 45.5 141t110.5 85t139 26q62 0 118.5 -21t90.5 -57v35q0 7 5 12.5t13 5.5h25q20 0 20 -18v-191q0 -18 -20 -18h-19q-20 0 -20 18q-10 77 -67.5 120.5t-129.5 45.5h-11q-60 0 -98 -31q-35 -28 -36 -75q0 -10 2 -21q4 -28 32.5 -49t71.5 -35t93.5 -29 t99 -37.5t87.5 -53.5t60 -84q16 -41 16 -93q0 -15 -1 -30q-10 -122 -101 -189t-211 -70h-16q-63 0 -119 21q-64 24 -100 68v-46q0 -9 -6.5 -14.5t-14.5 -5.5h-24q-8 0 -14.5 5.5t-6.5 14.5v226q0 9 6.5 14.5t14.5 5.5h20q8 0 13.5 -5.5t5.5 -14.5q0 -85 71 -138t158 -55h8 q61 -1 102 29q44 32 44 92q0 44 -29 71t-123 56q-87 26 -139 53q-166 84 -166 236z" />
<glyph unicode="t" horiz-adv-x="636" d="M14 774v25q0 8 6 13t15 5h172l149 273q8 20 19 20h16q9 0 15 -6t6 -14v-273h163q8 0 14.5 -5.5t6.5 -12.5v-25q0 -9 -6.5 -14.5t-14.5 -5.5h-143q-20 0 -20 -21v-645q0 -29 16 -33q16 -6 41 13q12 10 25.5 25.5t22 27t18.5 26t12 17.5q9 12 24 0l19 -17q10 -10 0 -24 q-1 -2 -9 -13.5t-14 -20.5t-18 -23t-25 -27q-28 -27 -61 -39.5t-57 -13.5h-30.5h-43.5q-130 24 -164 123v624q0 9 -6.5 15t-14.5 6h-112q-21 0 -21 20z" />
<glyph unicode="u" horiz-adv-x="1050" d="M16 774v25q0 8 6 13t15 5h260q33 0 62.5 -43.5t29.5 -81.5v-499q0 -72 20.5 -98.5t57.5 -10.5q90 40 172 219v430q0 9 -6.5 15t-14.5 6h-73q-8 0 -13.5 5.5t-5.5 14.5v25q0 7 5.5 12.5t13.5 5.5h338v-729q0 -31 16 -31q13 -3 27 11q28 19 43 36q13 10 26 0l15 -16 q6 -5 6 -12.5t-6 -12.5q-67 -78 -176 -78q-12 0 -25 1h-3.5h-2.5q-130 24 -164 123v67q-28 -51 -74 -100q-48 -54 -97 -74q-45 -18 -101 -18h-11q-39 2 -72 13t-66.5 36.5t-53 77t-19.5 125.5v497q0 21 -20 21h-88q-21 0 -21 20z" />
<glyph unicode="v" horiz-adv-x="776" d="M-23 774v25q0 8 6 13t15 5h403q8 0 14.5 -5.5t6.5 -12.5v-25q0 -9 -6.5 -14.5t-14.5 -5.5h-59q-7 0 -11.5 -5.5t-2.5 -11.5l143 -413l162 411q2 8 -3 13.5t-12 5.5h-71q-21 0 -21 20v25q0 8 6 13t15 5h231q9 0 15 -5t6 -13v-25q0 -20 -21 -20h-59q-16 0 -27 -19 l-278 -731q-8 -20 -21 -20h-6q-12 0 -20 20l-281 733q-10 17 -27 17h-61q-21 0 -21 20z" />
<glyph unicode="w" horiz-adv-x="1161" d="M-14 774v25q0 18 20 18h385q9 0 15 -5t6 -13v-25q0 -20 -21 -20h-45q-7 0 -11.5 -5.5t-2.5 -13.5l139 -373l147 410q8 19 21 19h12q10 0 21 -19l184 -416l135 381q1 6 -3.5 11.5t-10.5 5.5h-59q-8 0 -14.5 5.5t-6.5 14.5v25q0 7 6.5 12.5t14.5 5.5h237q9 0 15 -5t6 -13 v-25q0 -20 -21 -20h-65q-16 0 -27 -19l-252 -731q-8 -20 -20 -20h-13q-12 0 -20 20l-185 442l-157 -442q-8 -20 -21 -20h-12q-13 0 -21 20l-272 733q-7 17 -24 17h-60q-20 0 -20 20z" />
<glyph unicode="x" horiz-adv-x="845" d="M2 774v25q0 8 6 14t15 6h409q9 0 15 -6t6 -14v-25q0 -8 -6 -14t-15 -6h-57q-17 0 -10 -17l118 -209l174 209q7 17 -10 17h-47q-8 0 -14 6t-6 14v25q0 7 6 13.5t14 6.5h219q9 0 15 -6t6 -14v-25q0 -8 -6 -14t-15 -6h-49q-17 0 -31 -17l-223 -268l219 -387q11 -19 31 -19 h57q8 0 14.5 -5.5t6.5 -12.5v-25q0 -9 -6.5 -14.5t-14.5 -5.5h-411q-8 0 -13.5 5.5t-5.5 14.5v25q0 7 5.5 12.5t13.5 5.5h59q7 0 10 5.5t0 13.5l-116 207l-172 -207q-8 -19 8 -19h57q8 0 14.5 -5.5t6.5 -12.5v-25q0 -9 -6.5 -14.5t-14.5 -5.5h-231q-21 0 -21 20v25q0 8 6 13 t15 5h53q20 0 31 19l221 264l-221 389q-11 19 -29 19h-59q-9 0 -15 6t-6 14z" />
<glyph unicode="y" horiz-adv-x="808" d="M-43 -295q10 29 37 47q20 14 44 14q9 0 19 -2q47 -9 66 -46q11 -22 11 -44q0 -17 -6 -34q-15 -41 -56 -58q9 -4 20 -5t28 3.5t32.5 16t34 36.5t32.5 62l137 350l-274 690q-8 19 -27 19h-63q-8 0 -14.5 6.5t-6.5 13.5v25q0 7 6.5 13.5t14.5 6.5h403q9 0 15 -6t6 -14v-25 q0 -8 -6 -14t-15 -6h-57q-17 0 -14 -17l151 -413l172 413q3 17 -14 17h-74q-7 0 -13.5 6t-6.5 14v25q0 7 6.5 13.5t13.5 6.5h240q7 0 13.5 -6.5t6.5 -13.5v-25q0 -8 -6.5 -14t-13.5 -6h-64q-19 0 -26 -17l-435 -1061q-31 -79 -78 -115t-98 -36q-80 0 -123 55q-27 35 -27 76 q0 23 9 49z" />
<glyph unicode="z" horiz-adv-x="786" d="M61 20v21l375 711h-241q-17 0 -32.5 -39.5t-15.5 -77.5v-76q0 -8 -5.5 -14t-14.5 -6h-23q-9 0 -14.5 6t-5.5 14v260h596q8 0 14 -6.5t6 -13.5v-23l-374 -710h286q18 0 32.5 39t14.5 77v76q0 9 6.5 15t14.5 6h25q8 0 14 -6t6 -15v-258h-643q-21 0 -21 20z" />
<glyph unicode="{" horiz-adv-x="737" d="M113 584v26q0 9 6.5 16t15.5 7h31q46 0 76 47t41 104t23 155.5t24 159t32 95.5q20 36 58 74.5t69 62.5t85 62t73 53q8 6 17 5t14 -7l8 -10q6 -6 5.5 -15.5t-7.5 -15.5q-114 -117 -129 -244q-2 -17 -10 -117.5t-19.5 -173t-29.5 -123.5q-21 -53 -62.5 -99.5t-87.5 -47.5 q46 -1 87.5 -47.5t62.5 -99.5q18 -51 29.5 -124t19.5 -174t10 -118q15 -127 129 -244q7 -4 7.5 -14t-5.5 -17l-8 -8q-4 -7 -14 -8t-17 4q-22 17 -73.5 54t-84 62t-70 62.5t-57.5 73.5q-20 35 -32 96t-24 159t-23 155q-11 58 -41 104.5t-76 46.5l-31 2q-9 0 -15.5 6t-6.5 15z " />
<glyph unicode="|" horiz-adv-x="653" d="M276 -16v1489h101v-1489h-101z" />
<glyph unicode="}" horiz-adv-x="737" d="M46 -223q1 9 7 14q57 59 89.5 116t39.5 128q2 14 10.5 117t20 175.5t29.5 123.5q21 53 62 99.5t87 47.5q-46 1 -87 47.5t-62 99.5q-18 51 -29.5 123t-20 174.5t-10.5 116.5q-7 71 -39.5 128t-89.5 116q-6 6 -7 15.5t5 15.5l8 10q15 15 31 2q17 -12 73.5 -52t86 -63 t68 -62t59.5 -75q19 -35 31 -96t24 -158.5t23 -155.5q7 -35 20 -67t38.5 -58t57.5 -26h33q9 0 15 -7t6 -16v-26q0 -9 -6 -15t-15 -6l-33 -2q-46 0 -75.5 -46.5t-40.5 -104.5t-23 -155t-24 -158.5t-31 -96.5q-21 -36 -59 -74t-69.5 -62t-84.5 -62t-74 -54q-19 -11 -31 4l-8 8 q-6 8 -5 17z" />
<glyph unicode="~" horiz-adv-x="847" d="M92 475q-7 7 2 31q1 3 9 21.5t17 36.5l22.5 45t28.5 50t33 47.5t38 41t41 27t45 10t47 -14.5q11 -5 56 -33.5t56 -34.5q34 -18 69 -19t67 14t50.5 27.5t43.5 33.5q18 14 31 -2l8 -11q6 -6 -2 -30q-53 -122 -95 -181q-96 -134 -186 -83q-68 46 -113 67q-35 18 -69.5 19.5 t-66.5 -14t-50 -27.5t-43 -33q-6 -6 -15.5 -5t-15.5 7z" />
<glyph unicode="&#xa1;" horiz-adv-x="722" d="M215 -338q0 54 49 223t53 240q3 47 8 122t8 127.5t3 102.5q0 9 6.5 16t15.5 7h17q9 0 14.5 -7t5.5 -16q0 -49 3.5 -103t9 -126t8.5 -123q3 -72 52.5 -241t49.5 -222q0 -73 -41 -116.5t-110 -43.5t-110.5 43.5t-41.5 116.5zM242 727q0 54 36.5 91.5t88.5 37.5t88.5 -37.5 t36.5 -91.5t-36.5 -91.5t-88.5 -37.5t-88.5 37.5t-36.5 91.5z" />
<glyph unicode="&#xa2;" horiz-adv-x="937" d="M143 567q0 98 26 176t73 128.5t105 81.5t128 44v220q0 9 7 15.5t16 6.5h30q8 0 14.5 -6.5t6.5 -15.5v-220q165 -7 260 -155q25 -47 25 -92t-31.5 -74t-81.5 -21q-47 8 -66.5 46.5t-6 80t51.5 58.5q6 4 6 12t-6 14v-2q-57 65 -151 70v-731q57 5 116 47.5t99 114.5 q10 20 29 20h32q18 0 11 -20q-45 -99 -121 -160.5t-166 -65.5v-221q0 -9 -6.5 -15.5t-14.5 -6.5h-30q-9 0 -16 6.5t-7 15.5v219q-145 27 -238.5 137.5t-93.5 292.5zM360 567q0 -159 31.5 -246.5t83.5 -111.5v717q-62 -38 -88.5 -116t-26.5 -243z" />
<glyph unicode="&#xa3;" horiz-adv-x="933" d="M51 23v26q0 8 7 14.5t16 6.5h61q40 35 72 108t39 162q7 81 2 268h-78q-9 0 -16 7t-7 16v35q0 9 7 15.5t16 6.5h76q-7 182 26 297q23 84 65 143.5t96 90t108 44t114 13.5q103 0 160 -49.5t57 -114.5q0 -45 -28.5 -79t-77.5 -34q-50 0 -76.5 34.5t-22 77.5t34.5 67 q8 7 11 15t1 13.5t-9 5.5q-48 5 -86 -20t-61.5 -71.5t-40 -98t-24 -113.5t-10.5 -103.5t-4 -80.5v-37h223q9 0 16 -6.5t7 -15.5v-35q0 -9 -7 -16t-16 -7h-225q-5 -148 -64 -296t-167 -224l502 96q13 10 25.5 50.5t12.5 74.5v82h33q9 0 15 -6.5t6 -15.5l16 -369h-782 q-9 0 -16 7t-7 16z" />
<glyph unicode="&#xa4;" horiz-adv-x="1071" d="M51 508v35q0 9 7 15.5t16 6.5h94q-4 40 -4 66q0 25 4 65h-94q-9 0 -16 7t-7 16v35q0 9 7 15.5t16 6.5h102q35 217 173.5 360.5t309.5 143.5q73 0 135.5 -35t104.5 -96q23 52 23 100q0 9 5.5 16t14.5 7h25q9 0 15.5 -7t6.5 -16v-327q0 -8 -6.5 -14.5t-15.5 -6.5h-21 q-9 0 -14.5 6.5t-5.5 14.5q-21 137 -92.5 209.5t-174.5 72.5q-107 0 -151.5 -94t-67.5 -334h310q8 0 14 -6.5t6 -15.5v-35q0 -9 -6 -16t-14 -7h-314q-2 -20 -2 -65q0 -46 2 -66h314q8 0 14 -6.5t6 -15.5v-35q0 -9 -6 -16t-14 -7h-310q23 -240 67.5 -334t151.5 -94 q103 0 174.5 72.5t92.5 210.5q0 8 5.5 14t14.5 6h21q9 0 15.5 -6t6.5 -14v-328q0 -9 -6.5 -15.5t-15.5 -6.5h-25q-9 0 -14.5 6.5t-5.5 15.5q0 49 -23 101q-42 -61 -104.5 -96t-135.5 -35q-171 0 -309.5 143t-173.5 360h-102q-9 0 -16 7t-7 16z" />
<glyph unicode="&#xa5;" horiz-adv-x="1124" d="M-10 1204v25q0 9 6.5 15.5t15.5 6.5h471q9 0 16 -6.5t7 -15.5v-25q0 -9 -7 -15.5t-16 -6.5h-69q-20 0 -13 -21l254 -502l256 502q3 9 -0.5 15t-11.5 6h-96q-9 0 -15 6.5t-6 15.5v25q0 9 6 15.5t15 6.5h309q9 0 16 -6.5t7 -15.5v-25q0 -9 -7 -15.5t-16 -6.5h-80 q-9 0 -20 -7t-15 -16l-276 -551h192q9 0 16 -6t7 -14v-37q0 -9 -7 -15t-16 -6h-217v-133h217q9 0 16 -6.5t7 -15.5v-35q0 -9 -7 -15t-16 -6h-217v-227q0 -9 7 -15.5t16 -6.5h102q9 0 16 -6.5t7 -14.5v-26q0 -9 -7 -16t-16 -7h-485q-9 0 -16 7t-7 16v26q0 8 7 14.5t16 6.5 h102q9 0 16 6.5t7 15.5v227h-211q-8 0 -14.5 6t-6.5 15v35q0 9 6.5 15.5t14.5 6.5h211v133h-211q-8 0 -14.5 6t-6.5 15v37q0 7 6.5 13.5t14.5 6.5h176l-276 551q-15 23 -35 23h-103q-9 0 -15.5 6.5t-6.5 15.5z" />
<glyph unicode="&#xa6;" horiz-adv-x="653" d="M276 -16v606h101v-606h-101zM276 866v607h101v-607h-101z" />
<glyph unicode="&#xa7;" horiz-adv-x="636" d="M72 901q1 67 24 117.5t60.5 77.5t79.5 40t88 13q79 0 131.5 -41t79.5 -96q33 -64 14 -121q-8 -26 -33.5 -45t-54.5 -12q-38 10 -55 41.5t-7 67.5t43 58q-13 34 -45 56t-75 22q-68 0 -101 -48t-31 -105q2 -36 24.5 -63t56.5 -45t74.5 -35t79.5 -40t70 -52.5t47 -79 t9 -113.5q-17 -139 -129 -193q138 -82 133 -229q-1 -67 -24 -117.5t-60.5 -78.5t-79 -41t-86.5 -13q-140 0 -213 139q-31 68 -14 119q8 27 33.5 46t54.5 11q38 -9 55.5 -40.5t7.5 -67.5t-43 -58q37 -79 119 -79q69 0 102 49t29 104q-2 36 -24.5 63t-56.5 45t-74.5 35.5 t-79 40.5t-69 53t-46 79t-8.5 114q7 69 41 118t86 73q-136 80 -133 231zM180 487q0 -53 38.5 -91t94.5 -38q57 0 96.5 38t39.5 91t-39.5 91t-96.5 38q-56 0 -94.5 -38t-38.5 -91z" />
<glyph unicode="&#xa8;" horiz-adv-x="614" d="M72 1401q0 35 23 60.5t55 25.5q31 0 53 -25.5t22 -60.5t-22 -60.5t-53 -25.5q-32 0 -55 25.5t-23 60.5zM389 1401q0 35 23 60.5t55 25.5q31 0 53.5 -25.5t22.5 -60.5t-22.5 -60.5t-53.5 -25.5q-32 0 -55 25.5t-23 60.5z" />
<glyph unicode="&#xa9;" horiz-adv-x="1415" d="M61 668q0 132 51.5 252t138 206.5t206.5 137.5t252 51q175 0 323.5 -86.5t235 -235.5t86.5 -325q0 -175 -86.5 -323.5t-235 -235t-323.5 -86.5q-132 0 -252 51t-206.5 137.5t-138 206t-51.5 250.5zM150 668q0 -113 44 -216t119 -178t178.5 -119t217.5 -44q113 0 216 44 t178 119t119 178t44 216q0 114 -44 217.5t-119 178.5t-178 119t-216 44q-114 0 -217.5 -44t-178.5 -119t-119 -178.5t-44 -217.5zM377 668q0 161 96.5 272t233.5 111q120 0 202 -76q15 26 15 53q0 8 5.5 13.5t12.5 5.5h21q7 0 12.5 -5.5t5.5 -13.5v-237q0 -6 -5.5 -11.5 t-12.5 -5.5h-19q-7 0 -11.5 5.5t-4.5 11.5v16q-9 84 -70.5 135t-150.5 51q-195 0 -195 -325q0 -326 195 -326q88 0 150 52t71 136v15q0 18 16 18h19q7 0 12.5 -5.5t5.5 -12.5v-238q0 -16 -18 -16h-21q-18 0 -18 16q0 29 -15 55q-80 -77 -202 -77q-137 0 -233.5 112 t-96.5 271z" />
<glyph unicode="&#xaa;" horiz-adv-x="774" d="M72 774q0 226 364 230v143q0 58 -23 85.5t-61 27.5q-55 0 -100 -37q-7 -11 0 -21q23 -19 27.5 -51t-13 -59.5t-51.5 -34.5q-29 -4 -50.5 10.5t-29.5 36.5q-16 45 4 86t60.5 67.5t87.5 42t86 15.5q44 0 85 -9t82 -29.5t66 -62.5t25 -100v-395q0 -23 14 -27q11 0 21 10 q19 11 34 29q10 11 21 0l12 -12q8 -8 0 -21q-14 -15 -28.5 -26.5t-29.5 -18t-27 -11t-26.5 -6t-22 -2t-19.5 0t-13 0.5q-60 11 -88 34t-41 56q-53 -50 -99.5 -70t-107.5 -20q-73 0 -116 37t-43 102zM262 791q3 -58 38 -73t81 15q21 14 55 43v182q-21 0 -41.5 -2.5t-47 -13 t-45.5 -27.5t-31 -49t-9 -75z" />
<glyph unicode="&#xab;" horiz-adv-x="1312" d="M195 553q0 10 6 16l493 486q6 6 15.5 6t15.5 -6l25 -27q12 -12 0 -31l-263 -444l263 -444q12 -19 0 -31l-25 -27q-6 -6 -15.5 -6t-15.5 6l-493 486q-6 9 -6 16zM614 553q0 9 7 16l493 486q6 6 15.5 6t15.5 -6l24 -27q12 -12 0 -31l-262 -444l262 -444q12 -19 0 -31 l-24 -27q-6 -6 -15.5 -6t-15.5 6l-493 486q-7 11 -7 16z" />
<glyph unicode="&#xac;" horiz-adv-x="1056" d="M174 532v41q0 9 7 15t16 6h612q9 0 15.5 -6t6.5 -15v-311q0 -8 -6.5 -14t-15.5 -6h-39q-9 0 -15.5 6t-6.5 14v250h-551q-9 0 -16 5.5t-7 14.5z" />
<glyph unicode="&#xad;" horiz-adv-x="880" d="M205 532v41q0 9 6.5 15t15.5 6h428q8 0 14.5 -6t6.5 -15v-41q0 -9 -6.5 -14.5t-14.5 -5.5h-428q-9 0 -15.5 5.5t-6.5 14.5z" />
<glyph unicode="&#xae;" horiz-adv-x="1415" d="M61 668q0 132 51.5 252t138 206.5t206.5 137.5t252 51q175 0 323.5 -86.5t235 -235.5t86.5 -325q0 -175 -86.5 -323.5t-235 -235t-323.5 -86.5q-132 0 -252 51t-206.5 137.5t-138 206t-51.5 250.5zM150 668q0 -113 44 -216t119 -178t178.5 -119t217.5 -44q113 0 216 44 t178 119t119 178t44 216q0 114 -44 217.5t-119 178.5t-178 119t-216 44q-114 0 -217.5 -44t-178.5 -119t-119 -178.5t-44 -217.5zM379 317v23q0 8 5.5 13t12.5 5h56q7 0 12.5 5.5t5.5 11.5v586q0 7 -5.5 12.5t-12.5 5.5h-56q-7 0 -12.5 5t-5.5 11v23q0 8 5.5 13t12.5 5h297 q122 0 193 -53.5t71 -130.5q0 -62 -38.5 -107.5t-118.5 -64.5q71 -23 114 -76q28 -39 31 -88l2 -10v-35q1 -8 1 -17t-0.5 -18.5t-0.5 -13.5v-19q0 -59 37 -69q23 -4 53 8q13 4 17 -8l4 -21q3 -8 -8 -12q-50 -16 -82 -16q-78 0 -109.5 55.5t-36.5 157.5v18q-8 78 -44 112.5 t-117 33.5h-72v-287q0 -6 5.5 -11.5t12.5 -5.5h74q8 0 13 -5t5 -13v-23q0 -7 -5 -12.5t-13 -5.5h-285q-7 0 -12.5 5.5t-5.5 12.5zM590 719h78q82 0 119.5 33t37.5 100q0 127 -147 127h-88v-260z" />
<glyph unicode="&#xaf;" horiz-adv-x="485" d="M51 1241v62h383v-62h-383z" />
<glyph unicode="&#xb0;" horiz-adv-x="817" d="M102 1034q0 127 90 217t218 90q126 0 215.5 -90t89.5 -217q0 -126 -89.5 -215.5t-215.5 -89.5q-127 0 -217.5 89.5t-90.5 215.5zM201 1034q0 -86 61.5 -146.5t147.5 -60.5t146 60.5t60 146.5q0 87 -60 148t-146 61t-147.5 -61.5t-61.5 -147.5z" />
<glyph unicode="&#xb1;" horiz-adv-x="882" d="M113 23v38q0 9 6.5 16t15.5 7h613q9 0 15.5 -7t6.5 -16v-38q0 -9 -6.5 -16t-15.5 -7h-613q-9 0 -15.5 7t-6.5 16zM113 532v41q0 9 6.5 15t15.5 6h264v266q0 9 7 15t16 6h39q9 0 15.5 -6t6.5 -15v-266h265q9 0 15.5 -6t6.5 -15v-41q0 -9 -6.5 -14.5t-15.5 -5.5h-265v-264 q0 -9 -6.5 -16t-15.5 -7h-39q-9 0 -16 7t-7 16v264h-264q-9 0 -15.5 5.5t-6.5 14.5z" />
<glyph unicode="&#xb2;" horiz-adv-x="583" d="M72 575v19q42 47 87.5 107t95.5 136.5t82.5 154.5t33.5 136q1 34 0 54t-7 45t-22.5 37t-42.5 12q-54 0 -88 -32t-47 -73h12q26 0 44 -19.5t18 -47.5q0 -27 -17.5 -45.5t-42.5 -18.5q-40 0 -59 43q-13 23 -5 79.5t36 94.5q54 72 159 72q104 0 164 -51t57 -141 q-3 -54 -39 -120t-71 -108t-100.5 -112t-79.5 -86h217q8 0 14 21t6 42v57q2 0 10.5 0.5t13.5 0t11.5 -2t9.5 -6t4 -12.5l11 -256h-445q-8 0 -14 5.5t-6 14.5z" />
<glyph unicode="&#xb3;" horiz-adv-x="620" d="M72 709q0 27 17.5 47t41.5 20q26 0 44 -20t18 -47q0 -42 -33 -62q21 -32 57 -43t68 -4q46 10 63 45t17 117q0 56 -8.5 90t-29 51.5t-46 23t-68.5 5.5h-41q-9 0 -15.5 6t-6.5 14v13q0 9 6.5 14.5t15.5 5.5h41q68 0 98.5 33t30.5 125v24v22t-0.5 18.5t-1.5 17l-3 13.5 t-5 12t-7.5 8.5t-10.5 8t-13.5 5.5t-17.5 4q-73 8 -113 -43q20 -6 32.5 -24t12.5 -40q0 -27 -16.5 -46t-40.5 -19t-41 19t-17 46v13q10 70 63.5 108.5t121.5 38.5q91 0 150 -52t59 -134q0 -55 -46.5 -104.5t-107.5 -71.5q74 -18 129 -75.5t55 -129.5q0 -98 -69 -158.5 t-187 -60.5q-59 0 -110 32t-80 101q-6 30 -6 33z" />
<glyph unicode="&#xb4;" horiz-adv-x="557" d="M70 1251q2 8 10 13q6 4 47 28.5t70 44t51 37.5q28 23 67 58.5t58 46.5q28 18 57.5 12t44.5 -33q15 -26 5 -54.5t-38 -43.5q-16 -9 -36 -16t-53.5 -17.5t-63.5 -21.5q-48 -20 -180 -93q-19 -8 -29 9l-8 14q-4 8 -2 16z" />
<glyph unicode="&#xb5;" horiz-adv-x="1044" d="M10 -391q0 20 21 20h88q17 0 20 21v1083q0 21 -20 21h-88q-21 0 -21 20v25q0 8 6 13t15 5h260q33 0 62.5 -43.5t29.5 -81.5v-499q0 -72 20.5 -98.5t57.5 -10.5q90 40 172 219v430q0 9 -6.5 15t-14.5 6h-73q-8 0 -13.5 5.5t-5.5 14.5v25q0 7 5.5 12.5t13.5 5.5h338v-729 q0 -31 16 -31q13 -3 27 11q28 19 43 36q13 10 26 0l15 -16q6 -5 6 -12.5t-6 -12.5q-75 -87 -201 -77h-3.5h-2.5q-130 24 -164 123v67q-28 -51 -74 -100q-77 -89 -188 -92v-293q0 -38 -29.5 -81.5t-62.5 -43.5h-248q-21 0 -21 20v23z" />
<glyph unicode="&#xb6;" horiz-adv-x="1095" d="M82 629q0 140 94 233.5t258 93.5h498q8 0 13 -5t5 -13l2 -1196q0 -8 -5 -13t-13 -5h-123q-20 0 -20 18v1153h-89v-1153q0 -8 -5 -13t-13 -5h-123q-20 0 -20 18v549h-95q-96 0 -168 27.5t-113.5 76t-62 107t-20.5 127.5zM276 629q0 -136 53.5 -202.5t168.5 -66.5h43v527 h-56q-105 0 -157 -63t-52 -195z" />
<glyph unicode="&#xb7;" horiz-adv-x="577" d="M164 565q0 54 36.5 91.5t88.5 37.5t88.5 -37.5t36.5 -91.5t-36.5 -91.5t-88.5 -37.5t-88.5 37.5t-36.5 91.5z" />
<glyph unicode="&#xb8;" horiz-adv-x="438" d="M113 -170l26 170h51l-2 -123q37 -2 80.5 -16.5t79.5 -43t37 -61.5q0 -64 -123 -131q-54 -28 -112 -35q-8 -2 -15 3t-8 12l-2 14q-4 19 14 23q39 4 86 30q26 15 44 36.5t18 43.5q-4 70 -174 78z" />
<glyph unicode="&#xb9;" horiz-adv-x="532" d="M71.5 1276.5q-0.5 8.5 0 13.5t2 11.5t6 9.5t12.5 4l258 10v-707q0 -6 4 -6h86q21 0 21 -20v-17q0 -20 -21 -20h-348q-8 0 -14 5.5t-6 14.5v17q0 9 6 14.5t14 5.5h96q5 0 5 6v627q0 8 -21.5 14.5t-42.5 6.5h-57q0 2 -0.5 10.5z" />
<glyph unicode="&#xba;" horiz-adv-x="823" d="M92 975q0 145 87.5 242.5t232.5 97.5t232 -97.5t87 -242.5q0 -144 -87 -242t-232 -98t-232.5 98t-87.5 242zM303 975q0 -168 20.5 -228.5t88.5 -60.5t88 60.5t20 228.5q0 170 -20 230.5t-88 60.5t-88.5 -61t-20.5 -230z" />
<glyph unicode="&#xbb;" horiz-adv-x="1312" d="M143 78q-12 12 0 31l263 444l-263 444q-12 19 0 31l25 27q6 6 15.5 6t15.5 -6l493 -486q6 -6 6 -16q0 -7 -6 -16l-493 -486q-6 -6 -15.5 -6t-15.5 6zM563 78q-12 12 0 31l262 444l-262 444q-12 19 0 31l25 27q6 6 15 6t15 -6l494 -486q6 -6 6 -16q0 -7 -6 -16l-494 -486 q-6 -6 -15 -6t-15 6z" />
<glyph unicode="&#xbc;" horiz-adv-x="1294" d="M71.5 1276.5q-0.5 8.5 0 13.5t2 11.5t6 9.5t12.5 4l258 10v-707q0 -6 4 -6h86q21 0 21 -20v-17q0 -20 -21 -20h-348q-8 0 -14 5.5t-6 14.5v17q0 9 6 14.5t14 5.5h96q5 0 5 6v627q0 8 -21.5 14.5t-42.5 6.5h-57q0 2 -0.5 10.5zM307 29l604 1294q12 20 29 10l33 -14 q20 -12 10 -29l-604 -1296q-3 -7 -12.5 -10t-16.5 0l-33 14q-17 10 -10 31zM702 225v17q48 136 148.5 294.5t200.5 235.5h53v-510h63q7 0 7 6v58q0 20 18 20h12q8 0 13.5 -5.5t5.5 -14.5v-187q0 -7 -5.5 -12.5t-13.5 -5.5h-12q-8 0 -13 5.5t-5 12.5v60q0 1 -2.5 3.5 t-4.5 2.5h-63v-142q0 -4 4 -4h59q9 0 15 -6.5t6 -15.5v-17q0 -8 -6 -14t-15 -6h-284q-9 0 -15 6t-6 14v17q0 9 6 15.5t15 6.5h59q4 0 4 4v142h-223q-21 0 -21 20zM772 262h174v313q-125 -194 -174 -313z" />
<glyph unicode="&#xbd;" horiz-adv-x="1290" d="M71.5 1276.5q-0.5 8.5 0 13.5t2 11.5t6 9.5t12.5 4l258 10v-707q0 -6 4 -6h86q21 0 21 -20v-17q0 -20 -21 -20h-348q-8 0 -14 5.5t-6 14.5v17q0 9 6 14.5t14 5.5h96q5 0 5 6v627q0 8 -21.5 14.5t-42.5 6.5h-57q0 2 -0.5 10.5zM307 29l604 1294q12 20 29 10l33 -14 q20 -12 10 -29l-604 -1296q-3 -7 -12.5 -10t-16.5 0l-33 14q-17 10 -10 31zM754 20v21q58 65 120 148t120 196t59 188q1 34 0 54.5t-7 45.5t-22.5 37.5t-42.5 12.5q-54 0 -87 -32.5t-46 -74.5q2 2 10 2q26 0 44 -19.5t18 -47.5t-17 -47t-43 -19q-40 0 -59 45 q-13 22 -5.5 78.5t35.5 93.5q53 74 162 74q103 0 163 -51.5t56 -142.5q-3 -54 -39 -120t-71 -108t-100.5 -112t-79.5 -86h217q8 0 14 21.5t6 43.5v58q1 0 10.5 0.5t14 0t11.5 -2.5t10 -6.5t3 -12.5l11 -258h-443q-9 0 -15.5 6t-6.5 14z" />
<glyph unicode="&#xbe;" horiz-adv-x="1243" d="M72 709q0 27 17.5 47t41.5 20q26 0 44 -20t18 -47q0 -42 -33 -62q21 -32 57 -43t68 -4q46 10 63 45t17 117q0 56 -8.5 90t-29 51.5t-46 23t-68.5 5.5h-41q-9 0 -15.5 6t-6.5 14v13q0 9 6.5 14.5t15.5 5.5h41q68 0 98.5 33t30.5 125v24v22t-0.5 18.5t-1.5 17l-3 13.5 t-5 12t-7.5 8.5t-10.5 8t-13.5 5.5t-17.5 4q-73 8 -113 -43q20 -6 32.5 -24t12.5 -40q0 -27 -16.5 -46t-40.5 -19t-41 19t-17 46v13q10 70 63.5 108.5t121.5 38.5q91 0 150 -52t59 -134q0 -55 -46.5 -104.5t-107.5 -71.5q74 -18 129 -75.5t55 -129.5q0 -98 -69 -158.5 t-187 -60.5q-59 0 -110 32t-80 101q-6 30 -6 33zM295 29l604 1294q3 8 12 11t17 -1l30 -14q20 -10 13 -29l-604 -1296q-10 -17 -29 -10l-33 14q-20 12 -10 31zM651 225v17q48 137 148 295t200 235h54v-510h63q6 0 6 6v58q0 9 5.5 14.5t13.5 5.5h12q18 0 18 -20v-187 q0 -7 -5.5 -12.5t-12.5 -5.5h-12q-8 0 -13.5 5.5t-5.5 12.5v60q0 1 -2 3.5t-4 2.5h-63v-142q0 -4 4 -4h59q9 0 15 -6.5t6 -15.5v-17q0 -8 -6 -14t-15 -6h-285q-9 0 -14.5 6t-5.5 14v17q0 9 5.5 15.5t14.5 6.5h60q4 0 4 4v142h-223q-21 0 -21 20zM721 262h174v313 q-125 -194 -174 -313z" />
<glyph unicode="&#xbf;" horiz-adv-x="1058" d="M174 -203q0 50 20 98.5t57 93t74 82t86 85t78 82.5q32 39 44 55t27.5 45.5t20 60.5t5.5 78q0 9 6.5 16t15.5 7h15q9 0 15.5 -7t6.5 -16q4 -44 13.5 -108.5t13.5 -102.5t2.5 -84.5t-19 -84.5t-51.5 -72q-31 -30 -81.5 -74.5t-73.5 -67t-43 -55.5t-21 -66q-3 -90 53.5 -137 t149.5 -49q60 0 105 17t91 57q-46 10 -74 41t-28 82t36 80.5t83 29.5q55 0 84.5 -34.5t29.5 -86.5q0 -95 -91 -175.5t-253 -86.5q-62 -1 -116.5 6.5t-107 28t-90 53.5t-60.5 86.5t-23 122.5zM489 727q0 54 37 91.5t88 37.5q53 0 90 -37.5t37 -91.5t-37 -91.5t-90 -37.5 q-51 0 -88 37.5t-37 91.5z" />
<glyph unicode="&#xc0;" d="M-41 23v26q0 8 7 14.5t16 6.5h94q21 0 28 22l404 1221q7 22 22 22h43q16 0 23 -22l426 -1225q11 -18 29 -18h88q9 0 15.5 -6.5t6.5 -14.5v-26q0 -9 -6.5 -16t-15.5 -7h-500q-9 0 -16 7t-7 16v26q0 8 7 14.5t16 6.5h88q9 0 14 6t2 14l-110 324h-340l-107 -322 q-3 -9 2.5 -15.5t14.5 -6.5h82q9 0 15.5 -6.5t6.5 -14.5v-26q0 -9 -6.5 -16t-15.5 -7h-303q-9 0 -16 7t-7 16zM319 494h287l-145 426zM353.5 1600q-10.5 29 4.5 55t45 31.5t58 -11.5q16 -9 32 -22.5t41.5 -37t51.5 -44.5q31 -25 168 -111q18 -11 8 -28l-8 -15 q-3 -7 -12.5 -9t-16.5 1q-126 70 -178 92q-30 11 -64.5 21.5t-54.5 17.5t-35 16q-29 15 -39.5 44z" />
<glyph unicode="&#xc1;" d="M-41 23v26q0 8 7 14.5t16 6.5h94q21 0 28 22l404 1221q7 22 22 22h43q16 0 23 -22l426 -1225q11 -18 29 -18h88q9 0 15.5 -6.5t6.5 -14.5v-26q0 -9 -6.5 -16t-15.5 -7h-500q-9 0 -16 7t-7 16v26q0 8 7 14.5t16 6.5h88q9 0 14 6t2 14l-110 324h-340l-107 -322 q-3 -9 2.5 -15.5t14.5 -6.5h82q9 0 15.5 -6.5t6.5 -14.5v-26q0 -9 -6.5 -16t-15.5 -7h-303q-9 0 -16 7t-7 16zM319 494h287l-145 426zM344 1432q-10 17 8 28q9 6 36.5 22.5t46 28t43.5 29t42 31.5q27 22 66.5 57.5t58.5 46.5q28 17 58 11.5t45 -31.5t5 -55t-38 -44 q-16 -9 -36.5 -16t-54 -17.5t-63.5 -21.5q-55 -23 -180 -92q-20 -8 -29 8z" />
<glyph unicode="&#xc2;" d="M-41 23v26q0 8 7 14.5t16 6.5h94q21 0 28 22l404 1221q7 22 22 22h43q16 0 23 -22l426 -1225q11 -18 29 -18h88q9 0 15.5 -6.5t6.5 -14.5v-26q0 -9 -6.5 -16t-15.5 -7h-500q-9 0 -16 7t-7 16v26q0 8 7 14.5t16 6.5h88q9 0 14 6t2 14l-110 324h-340l-107 -322 q-3 -9 2.5 -15.5t14.5 -6.5h82q9 0 15.5 -6.5t6.5 -14.5v-26q0 -9 -6.5 -16t-15.5 -7h-303q-9 0 -16 7t-7 16zM311 1434q-7 7 0 14l238 242q2 2 8 2t8 -2l238 -242q7 -7 0 -14l-12 -13q-7 -7 -17 0l-217 140l-219 -140q-7 -7 -14 0zM319 494h287l-145 426z" />
<glyph unicode="&#xc3;" d="M-41 23v26q0 8 7 14.5t16 6.5h94q21 0 28 22l404 1221q7 22 22 22h43q16 0 23 -22l426 -1225q11 -18 29 -18h88q9 0 15.5 -6.5t6.5 -14.5v-26q0 -9 -6.5 -16t-15.5 -7h-500q-9 0 -16 7t-7 16v26q0 8 7 14.5t16 6.5h88q9 0 14 6t2 14l-110 324h-340l-107 -322 q-3 -9 2.5 -15.5t14.5 -6.5h82q9 0 15.5 -6.5t6.5 -14.5v-26q0 -9 -6.5 -16t-15.5 -7h-303q-9 0 -16 7t-7 16zM301 1442q-10 10 2 26q1 2 11.5 22.5t20.5 37t27 41.5t35.5 40.5t40 28t46.5 11.5t51 -17q9 -5 48.5 -30t45.5 -29q24 -13 46.5 -15.5t45.5 9.5t35 19.5 t35.5 29.5t25.5 24q6 6 14 5t13 -7l6 -8q9 -9 -2 -28q-1 -1 -12 -22t-21 -37.5t-27 -41.5t-35 -40.5t-40 -28t-47 -11.5t-50 17q-6 4 -44.5 29t-49.5 32q-21 11 -41.5 12.5t-35.5 -1.5t-34.5 -15.5t-28 -19.5t-27 -24.5t-21.5 -20.5q-16 -12 -27 2zM319 494h287l-145 426z " />
<glyph unicode="&#xc4;" d="M-41 23v26q0 8 7 14.5t16 6.5h94q21 0 28 22l404 1221q7 22 22 22h43q16 0 23 -22l426 -1225q11 -18 29 -18h88q9 0 15.5 -6.5t6.5 -14.5v-26q0 -9 -6.5 -16t-15.5 -7h-500q-9 0 -16 7t-7 16v26q0 8 7 14.5t16 6.5h88q9 0 14 6t2 14l-110 324h-340l-107 -322 q-3 -9 2.5 -15.5t14.5 -6.5h82q9 0 15.5 -6.5t6.5 -14.5v-26q0 -9 -6.5 -16t-15.5 -7h-303q-9 0 -16 7t-7 16zM319 494h287l-145 426zM319 1528q0 35 23 60.5t55 25.5q31 0 53.5 -25.5t22.5 -60.5t-22.5 -60.5t-53.5 -25.5q-32 0 -55 25.5t-23 60.5zM637 1528q0 35 23 60.5 t55 25.5q31 0 53.5 -25.5t22.5 -60.5t-22.5 -60.5t-53.5 -25.5q-32 0 -55 25.5t-23 60.5z" />
<glyph unicode="&#xc5;" d="M-41 23v26q0 8 7 14.5t16 6.5h94q21 0 28 22l404 1221q7 22 22 22h43q16 0 23 -22l426 -1225q11 -18 29 -18h88q9 0 15.5 -6.5t6.5 -14.5v-26q0 -9 -6.5 -16t-15.5 -7h-500q-9 0 -16 7t-7 16v26q0 8 7 14.5t16 6.5h88q9 0 14 6t2 14l-110 324h-340l-107 -322 q-3 -9 2.5 -15.5t14.5 -6.5h82q9 0 15.5 -6.5t6.5 -14.5v-26q0 -9 -6.5 -16t-15.5 -7h-303q-9 0 -16 7t-7 16zM319 494h287l-145 426zM373 1606q0 70 50.5 121t121.5 51q72 0 123 -50.5t51 -121.5q0 -72 -51 -123t-123 -51q-71 0 -121.5 51t-50.5 123zM440 1606 q0 -44 31 -75.5t74 -31.5q44 0 75 31.5t31 75.5q0 43 -31 73.5t-75 30.5q-43 0 -74 -30.5t-31 -73.5z" />
<glyph unicode="&#xc6;" horiz-adv-x="1550" d="M-61 23v26q0 8 6.5 14.5t15.5 6.5h92q17 0 29 20l565 1202q8 23 21 23h764v-301q0 -9 -6 -16t-15 -7h-27q-9 0 -15.5 7t-6.5 16v102q0 39 -14.5 80t-32.5 41h-379v-504h209q15 0 29 37t14 72v18q0 9 5 15t13 6h25q20 0 20 -21v-364q0 -8 -5.5 -14.5t-14.5 -6.5h-25 q-7 0 -12.5 6.5t-5.5 14.5v49q0 35 -14 71.5t-29 36.5h-209v-573h426q18 0 32.5 40.5t14.5 78.5v131q0 9 7 15.5t16 6.5h26q8 0 14.5 -6.5t6.5 -15.5v-330h-932q-9 0 -16 7t-7 16v26q0 8 7 14.5t16 6.5h96q9 0 16 6.5t7 15.5v322h-351l-149 -322q-4 -9 0.5 -15.5t13.5 -6.5 h84q9 0 16 -6.5t7 -14.5v-26q0 -9 -7 -16t-16 -7h-303q-9 0 -15.5 7t-6.5 16zM352 494h314v661z" />
<glyph unicode="&#xc7;" horiz-adv-x="1058" d="M72 657q0 191 64.5 343t191.5 242.5t297 90.5q93 0 171.5 -38t129.5 -107q28 47 28 115q0 9 7 15.5t16 6.5h27q9 0 15.5 -6.5t6.5 -15.5v-424q0 -9 -6.5 -16t-15.5 -7h-23q-9 0 -16 7t-7 16q1 89 -28.5 162.5t-78 118.5t-107 69t-119.5 24q-144 0 -201 -134.5t-57 -461.5 t57 -461.5t201 -134.5q130 0 232 100.5t101 274.5q0 9 7 16t16 7h23q9 0 15.5 -7t6.5 -16v-424q0 -9 -6.5 -14.5t-15.5 -5.5h-27q-9 0 -16 5.5t-7 14.5q0 68 -28 115q-51 -69 -129.5 -107t-171.5 -38h-29v-105q36 -2 79.5 -16.5t79.5 -43t36 -61.5q3 -63 -121 -131 q-58 -28 -113 -35q-7 -1 -13.5 3t-8.5 12l-5 14q-2 8 3 15t12 8q45 5 86 30q26 14 43.5 36t17.5 44q0 70 -174 78l21 158q-144 22 -251 116t-161.5 236.5t-54.5 316.5z" />
<glyph unicode="&#xc8;" horiz-adv-x="1169" d="M123 23v26q0 8 6.5 14.5t15.5 6.5h95q9 0 15.5 6.5t6.5 15.5v1131q0 9 -6.5 15.5t-15.5 6.5h-95q-9 0 -15.5 7t-6.5 16v24q0 9 6.5 16t15.5 7h885v-301q0 -9 -6.5 -16t-15.5 -7h-27q-8 0 -14 7t-6 16v102q0 38 -15.5 79.5t-32.5 41.5h-378v-504h208q15 0 28 37t13 72v18 q0 9 6.5 15t14.5 6h24q8 0 14.5 -6t6.5 -15v-364q0 -8 -7 -14.5t-14 -6.5h-24q-7 0 -14 6.5t-7 14.5v49q0 35 -13 71.5t-28 36.5h-208v-573h426q17 0 32 41t15 78v131q0 9 5.5 15.5t14.5 6.5h27q9 0 15.5 -6.5t6.5 -15.5v-330h-932q-9 0 -15.5 7t-6.5 16zM382.5 1600 q-10.5 29 4.5 55t44.5 31.5t57.5 -11.5q16 -9 32 -22.5t41.5 -37t51.5 -44.5q31 -25 168 -111q19 -11 9 -28l-9 -15q-3 -7 -12 -9t-16 1q-123 68 -179 92q-30 11 -64.5 21.5t-53.5 17.5t-35 16q-29 15 -39.5 44z" />
<glyph unicode="&#xc9;" horiz-adv-x="1169" d="M123 23v26q0 8 6.5 14.5t15.5 6.5h95q9 0 15.5 6.5t6.5 15.5v1131q0 9 -6.5 15.5t-15.5 6.5h-95q-9 0 -15.5 7t-6.5 16v24q0 9 6.5 16t15.5 7h885v-301q0 -9 -6.5 -16t-15.5 -7h-27q-8 0 -14 7t-6 16v102q0 38 -15.5 79.5t-32.5 41.5h-378v-504h208q15 0 28 37t13 72v18 q0 9 6.5 15t14.5 6h24q8 0 14.5 -6t6.5 -15v-364q0 -8 -7 -14.5t-14 -6.5h-24q-7 0 -14 6.5t-7 14.5v49q0 35 -13 71.5t-28 36.5h-208v-573h426q17 0 32 41t15 78v131q0 9 5.5 15.5t14.5 6.5h27q9 0 15.5 -6.5t6.5 -15.5v-330h-932q-9 0 -15.5 7t-6.5 16zM387 1432 q-10 17 8 28q9 6 36.5 22.5t46 28t43.5 29t42 31.5q27 22 66.5 57.5t58.5 46.5q28 17 58 11.5t45 -31.5t5 -55t-38 -44q-16 -9 -36.5 -16t-54 -17.5t-63.5 -21.5q-55 -23 -180 -92q-20 -8 -29 8z" />
<glyph unicode="&#xca;" horiz-adv-x="1169" d="M123 23v26q0 8 6.5 14.5t15.5 6.5h95q9 0 15.5 6.5t6.5 15.5v1131q0 9 -6.5 15.5t-15.5 6.5h-95q-9 0 -15.5 7t-6.5 16v24q0 9 6.5 16t15.5 7h885v-301q0 -9 -6.5 -16t-15.5 -7h-27q-8 0 -14 7t-6 16v102q0 38 -15.5 79.5t-32.5 41.5h-378v-504h208q15 0 28 37t13 72v18 q0 9 6.5 15t14.5 6h24q8 0 14.5 -6t6.5 -15v-364q0 -8 -7 -14.5t-14 -6.5h-24q-7 0 -14 6.5t-7 14.5v49q0 35 -13 71.5t-28 36.5h-208v-573h426q17 0 32 41t15 78v131q0 9 5.5 15.5t14.5 6.5h27q9 0 15.5 -6.5t6.5 -15.5v-330h-932q-9 0 -15.5 7t-6.5 16zM348 1434 q-7 7 0 14l238 242q2 2 8 2t8 -2l238 -242q7 -7 0 -14l-13 -13q-6 -6 -16 0l-217 140l-219 -140q-7 -7 -15 0z" />
<glyph unicode="&#xcb;" horiz-adv-x="1169" d="M123 23v26q0 8 6.5 14.5t15.5 6.5h95q9 0 15.5 6.5t6.5 15.5v1131q0 9 -6.5 15.5t-15.5 6.5h-95q-9 0 -15.5 7t-6.5 16v24q0 9 6.5 16t15.5 7h885v-301q0 -9 -6.5 -16t-15.5 -7h-27q-8 0 -14 7t-6 16v102q0 38 -15.5 79.5t-32.5 41.5h-378v-504h208q15 0 28 37t13 72v18 q0 9 6.5 15t14.5 6h24q8 0 14.5 -6t6.5 -15v-364q0 -8 -7 -14.5t-14 -6.5h-24q-7 0 -14 6.5t-7 14.5v49q0 35 -13 71.5t-28 36.5h-208v-573h426q17 0 32 41t15 78v131q0 9 5.5 15.5t14.5 6.5h27q9 0 15.5 -6.5t6.5 -15.5v-330h-932q-9 0 -15.5 7t-6.5 16zM344 1528 q0 35 23 60.5t55 25.5q31 0 53.5 -25.5t22.5 -60.5t-22.5 -60.5t-53.5 -25.5q-32 0 -55 25.5t-23 60.5zM662 1528q0 35 22.5 60.5t54.5 25.5q31 0 53.5 -25.5t22.5 -60.5t-22.5 -60.5t-53.5 -25.5q-32 0 -54.5 25.5t-22.5 60.5z" />
<glyph unicode="&#xcc;" horiz-adv-x="800" d="M123 23v26q0 8 6.5 14.5t15.5 6.5h97q22 0 22 22v1131q0 22 -22 22h-97q-9 0 -15.5 7t-6.5 16v24q0 9 6.5 16t15.5 7h512q9 0 15 -7t6 -16v-24q0 -9 -6 -16t-15 -7h-98q-9 0 -15.5 -6.5t-6.5 -15.5v-1131q0 -9 6.5 -15.5t15.5 -6.5h98q9 0 15 -6.5t6 -14.5v-26 q0 -9 -6 -16t-15 -7h-512q-9 0 -15.5 7t-6.5 16zM206 1600q-10 29 3 55q15 26 45 31.5t59 -11.5q19 -11 58.5 -46.5t66.5 -57.5q22 -18 49.5 -37t72.5 -46.5t46 -27.5q18 -11 8 -28l-8 -15q-9 -15 -28 -8q-122 68 -181 92q-30 11 -64.5 21.5t-53.5 17.5t-35 16 q-28 15 -38 44z" />
<glyph unicode="&#xcd;" horiz-adv-x="800" d="M123 23v26q0 8 6.5 14.5t15.5 6.5h97q22 0 22 22v1131q0 22 -22 22h-97q-9 0 -15.5 7t-6.5 16v24q0 9 6.5 16t15.5 7h512q9 0 15 -7t6 -16v-24q0 -9 -6 -16t-15 -7h-98q-9 0 -15.5 -6.5t-6.5 -15.5v-1131q0 -9 6.5 -15.5t15.5 -6.5h98q9 0 15 -6.5t6 -14.5v-26 q0 -9 -6 -16t-15 -7h-512q-9 0 -15.5 7t-6.5 16zM186 1432q-10 17 9 28q138 86 167 111q27 22 66.5 57.5t58.5 46.5q28 17 58 11.5t45 -31.5t4.5 -55t-39.5 -44q-15 -9 -35 -16t-53.5 -17.5t-63.5 -21.5q-55 -23 -180 -92q-19 -7 -28 8z" />
<glyph unicode="&#xce;" horiz-adv-x="800" d="M123 23v26q0 8 6.5 14.5t15.5 6.5h97q22 0 22 22v1131q0 22 -22 22h-97q-9 0 -15.5 7t-6.5 16v24q0 9 6.5 16t15.5 7h512q9 0 15 -7t6 -16v-24q0 -9 -6 -16t-15 -7h-98q-9 0 -15.5 -6.5t-6.5 -15.5v-1131q0 -9 6.5 -15.5t15.5 -6.5h98q9 0 15 -6.5t6 -14.5v-26 q0 -9 -6 -16t-15 -7h-512q-9 0 -15.5 7t-6.5 16zM158 1434q-7 7 0 14l237 242q2 2 8 2q7 0 9 -2l237 -242q7 -7 0 -14l-12 -13q-6 -6 -16 0l-218 140l-219 -140q-7 -7 -14 0z" />
<glyph unicode="&#xcf;" horiz-adv-x="800" d="M123 23v26q0 8 6.5 14.5t15.5 6.5h97q22 0 22 22v1131q0 22 -22 22h-97q-9 0 -15.5 7t-6.5 16v24q0 9 6.5 16t15.5 7h512q9 0 15 -7t6 -16v-24q0 -9 -6 -16t-15 -7h-98q-9 0 -15.5 -6.5t-6.5 -15.5v-1131q0 -9 6.5 -15.5t15.5 -6.5h98q9 0 15 -6.5t6 -14.5v-26 q0 -9 -6 -16t-15 -7h-512q-9 0 -15.5 7t-6.5 16zM164 1528q0 35 23 60.5t55 25.5q31 0 53 -25.5t22 -60.5t-22 -60.5t-53 -25.5q-32 0 -55 25.5t-23 60.5zM481 1528q0 35 23 60.5t55 25.5q31 0 53.5 -25.5t22.5 -60.5t-22.5 -60.5t-53.5 -25.5q-32 0 -55 25.5t-23 60.5z" />
<glyph unicode="&#xd0;" horiz-adv-x="1333" d="M102 23v26q0 8 7 14.5t16 6.5h94q9 0 16 6.5t7 15.5v512h-86q-9 0 -16 6t-7 15v41q0 9 7 14.5t16 5.5h86v537q0 9 -7 15.5t-16 6.5h-94q-9 0 -16 7t-7 16v24q0 9 7 16t16 7h571q136 0 259 -86.5t199.5 -239.5t76.5 -332q0 -135 -45.5 -258t-119.5 -209.5t-171 -138 t-199 -51.5h-571q-9 0 -16 7t-7 16zM514 80h100q320 0 320 577q0 580 -320 580h-100v-551h70q9 0 15.5 -5.5t6.5 -14.5v-41q0 -9 -6.5 -15t-15.5 -6h-70v-524z" />
<glyph unicode="&#xd1;" horiz-adv-x="1224" d="M72 23v26q0 8 6.5 14.5t15.5 6.5h90q9 0 16 6.5t7 15.5v1131q0 9 -7 15.5t-16 6.5h-90q-9 0 -15.5 7t-6.5 16v24q0 9 6.5 16t15.5 7h322q26 0 52 -25.5t46 -60.5l426 -742v736q0 9 -6.5 15.5t-15.5 6.5h-97q-9 0 -15.5 7t-6.5 16v24q0 9 6.5 16t15.5 7h312q8 0 14 -7 t6 -16v-24q0 -9 -6 -16t-14 -7h-93q-9 0 -15.5 -6.5t-6.5 -15.5v-1221q0 -9 -7 -15.5t-16 -6.5h-26q-10 0 -23 22l-659 1110v-1020q0 -9 6.5 -15.5t15.5 -6.5h94q9 0 16 -6.5t7 -14.5v-26q0 -9 -7 -16t-16 -7h-309q-9 0 -15.5 7t-6.5 16zM344 1442q-10 10 2 26 q1 2 11.5 22.5t20.5 37t27 41.5t35.5 40.5t40 28t46.5 11.5t51 -17q9 -5 48.5 -30t45.5 -29q24 -13 46.5 -15.5t45.5 9.5t35 19.5t35.5 29.5t25.5 24q6 6 14 5t13 -7l6 -8q9 -9 -2 -28q-1 -1 -12 -22t-21 -37.5t-27 -41.5t-35 -40.5t-40 -28t-47 -11.5t-50 17q-6 4 -44.5 29 t-49.5 32q-21 11 -41.5 12.5t-35.5 -1.5t-34.5 -15.5t-28 -19.5t-27 -24.5t-21.5 -20.5q-16 -12 -27 2z" />
<glyph unicode="&#xd2;" horiz-adv-x="1230" d="M63 657q0 191 64.5 343t191.5 242.5t297 90.5q169 0 295.5 -90.5t191 -242.5t64.5 -343q0 -142 -38 -265.5t-107.5 -214.5t-174 -143t-231.5 -52q-128 0 -233 52t-174.5 143t-107.5 214.5t-38 265.5zM358 657q0 -327 57 -461.5t201 -134.5q142 0 199 135t57 461t-57 461 t-199 135q-144 0 -201 -134.5t-57 -461.5zM435.5 1600q-10.5 29 4.5 55t45 31.5t58 -11.5q16 -9 32 -22.5t41.5 -37t51.5 -44.5q31 -25 168 -111q18 -11 8 -28l-8 -15q-3 -7 -12.5 -9t-16.5 1q-126 70 -178 92q-30 11 -64.5 21.5t-54.5 17.5t-35 16q-29 15 -39.5 44z" />
<glyph unicode="&#xd3;" horiz-adv-x="1230" d="M63 657q0 191 64.5 343t191.5 242.5t297 90.5q169 0 295.5 -90.5t191 -242.5t64.5 -343q0 -142 -38 -265.5t-107.5 -214.5t-174 -143t-231.5 -52q-128 0 -233 52t-174.5 143t-107.5 214.5t-38 265.5zM358 657q0 -327 57 -461.5t201 -134.5q142 0 199 135t57 461t-57 461 t-199 135q-144 0 -201 -134.5t-57 -461.5zM416 1432q-10 17 8 28q9 6 36.5 22.5t46 28t43.5 29t42 31.5q27 22 66.5 57.5t58.5 46.5q28 17 57.5 11.5t44.5 -31.5t5 -55t-38 -44q-16 -9 -36 -16t-53.5 -17.5t-63.5 -21.5q-55 -23 -180 -92q-20 -8 -29 8z" />
<glyph unicode="&#xd4;" horiz-adv-x="1230" d="M63 657q0 191 64.5 343t191.5 242.5t297 90.5q169 0 295.5 -90.5t191 -242.5t64.5 -343q0 -142 -38 -265.5t-107.5 -214.5t-174 -143t-231.5 -52q-128 0 -233 52t-174.5 143t-107.5 214.5t-38 265.5zM358 657q0 -327 57 -461.5t201 -134.5q142 0 199 135t57 461t-57 461 t-199 135q-144 0 -201 -134.5t-57 -461.5zM375 1434q-7 7 0 14l237 242q2 2 9 2q6 0 8 -2l237 -242q7 -7 0 -14l-12 -13q-6 -6 -16 0l-217 140l-220 -140q-7 -7 -14 0z" />
<glyph unicode="&#xd5;" horiz-adv-x="1230" d="M63 657q0 191 64.5 343t191.5 242.5t297 90.5q169 0 295.5 -90.5t191 -242.5t64.5 -343q0 -142 -38 -265.5t-107.5 -214.5t-174 -143t-231.5 -52q-128 0 -233 52t-174.5 143t-107.5 214.5t-38 265.5zM354 1442q-10 10 2 26q1 2 11.5 22.5t20.5 37t27 41.5t35.5 40.5 t40 28t46.5 11.5t51 -17q9 -5 48.5 -30t45.5 -29q24 -13 46.5 -15.5t45.5 9.5t35 19.5t35.5 29.5t25.5 24q6 6 14 5t13 -7l6 -8q9 -9 -2 -28q-1 -2 -11.5 -22.5t-21 -37t-27 -41.5t-35 -40.5t-40 -28t-46.5 -11.5t-50 17q-5 3 -44 28.5t-51 32.5q-21 11 -41.5 12.5 t-35.5 -1.5t-34.5 -15.5t-28 -19.5t-27 -24.5t-21.5 -20.5q-16 -12 -27 2zM358 657q0 -327 57 -461.5t201 -134.5q142 0 199 135t57 461t-57 461t-199 135q-144 0 -201 -134.5t-57 -461.5z" />
<glyph unicode="&#xd6;" horiz-adv-x="1230" d="M63 657q0 191 64.5 343t191.5 242.5t297 90.5q169 0 295.5 -90.5t191 -242.5t64.5 -343q0 -142 -38 -265.5t-107.5 -214.5t-174 -143t-231.5 -52q-128 0 -233 52t-174.5 143t-107.5 214.5t-38 265.5zM358 657q0 -327 57 -461.5t201 -134.5q142 0 199 135t57 461t-57 461 t-199 135q-144 0 -201 -134.5t-57 -461.5zM383 1528q0 35 23 60.5t55 25.5q31 0 53.5 -25.5t22.5 -60.5t-22.5 -60.5t-53.5 -25.5q-32 0 -55 25.5t-23 60.5zM700 1528q0 35 23 60.5t55 25.5q31 0 53.5 -25.5t22.5 -60.5t-22.5 -60.5t-53.5 -25.5q-32 0 -55 25.5t-23 60.5z " />
<glyph unicode="&#xd7;" horiz-adv-x="606" d="M66 365.5q0 9.5 6 15.5l172 172l-172 172q-6 6 -6 15.5t6 15.5l28 28q6 6 15.5 6t15.5 -6l172 -172l172 172q17 14 31 0l29 -28q6 -6 6 -15.5t-6 -15.5l-173 -172l173 -172q6 -6 6 -15.5t-6 -15.5l-29 -28q-14 -14 -31 0l-172 172l-172 -172q-6 -6 -15.5 -6t-15.5 6 l-28 28q-6 6 -6 15.5z" />
<glyph unicode="&#xd8;" horiz-adv-x="1288" d="M92 657q0 191 64.5 343t191.5 242.5t297 90.5q131 0 234 -53l20 43q12 20 29 10l33 -14q20 -12 10 -29l-23 -51q119 -87 183.5 -240t64.5 -342q0 -142 -38 -265.5t-107.5 -214.5t-174 -143t-231.5 -52q-143 0 -254 63l-24 -51q-3 -7 -12.5 -10t-16.5 0l-33 14 q-17 10 -10 31l29 61q-112 89 -172 237.5t-60 329.5zM387 657q0 -239 29 -370l407 872q-58 94 -178 94q-144 0 -201 -134.5t-57 -461.5zM453 178q59 -117 192 -117q142 0 199 135t57 461q0 275 -37 404z" />
<glyph unicode="&#xd9;" horiz-adv-x="1331" d="M88 1268v24q0 9 7 16t16 7h505q9 0 16 -7t7 -16v-24q0 -9 -7 -16t-16 -7h-94q-9 0 -15.5 -6.5t-6.5 -15.5v-852q0 -84 26 -152t87 -113t151 -45q91 0 153 45t88.5 113t26.5 152v852q0 9 -6.5 15.5t-15.5 6.5h-101q-9 0 -15.5 7t-6.5 16v24q0 9 6.5 16t15.5 7h312 q9 0 15.5 -7t6.5 -16v-24q0 -9 -6.5 -16t-15.5 -7h-86q-9 0 -16 -6.5t-7 -15.5v-842q0 -66 -10.5 -120.5t-39 -108t-75 -89.5t-122 -58.5t-175.5 -22.5q-222 0 -342.5 107.5t-120.5 324.5v809q0 9 -6.5 15.5t-15.5 6.5h-94q-9 0 -16 7t-7 16zM503.5 1600q-10.5 29 4.5 55 t44.5 31.5t57.5 -11.5q16 -9 32 -22.5t41.5 -37t51.5 -44.5q31 -25 168 -111q18 -11 8 -28l-8 -15q-3 -7 -12.5 -9t-16.5 1q-126 70 -178 92q-30 11 -64.5 21.5t-53.5 17.5t-35 16q-29 15 -39.5 44z" />
<glyph unicode="&#xda;" horiz-adv-x="1331" d="M88 1268v24q0 9 7 16t16 7h505q9 0 16 -7t7 -16v-24q0 -9 -7 -16t-16 -7h-94q-9 0 -15.5 -6.5t-6.5 -15.5v-852q0 -84 26 -152t87 -113t151 -45q91 0 153 45t88.5 113t26.5 152v852q0 9 -6.5 15.5t-15.5 6.5h-101q-9 0 -15.5 7t-6.5 16v24q0 9 6.5 16t15.5 7h312 q9 0 15.5 -7t6.5 -16v-24q0 -9 -6.5 -16t-15.5 -7h-86q-9 0 -16 -6.5t-7 -15.5v-842q0 -66 -10.5 -120.5t-39 -108t-75 -89.5t-122 -58.5t-175.5 -22.5q-222 0 -342.5 107.5t-120.5 324.5v809q0 9 -6.5 15.5t-15.5 6.5h-94q-9 0 -16 7t-7 16zM479 1432q-10 17 8 28 q9 6 36.5 22.5t46 28t43.5 29t42 31.5q26 21 51.5 44.5t41.5 37t32 22.5q28 17 58 11.5t45 -31.5t4.5 -55t-39.5 -44q-15 -9 -35 -16t-53.5 -17.5t-63.5 -21.5q-55 -23 -180 -92q-20 -8 -29 8z" />
<glyph unicode="&#xdb;" horiz-adv-x="1331" d="M88 1268v24q0 9 7 16t16 7h505q9 0 16 -7t7 -16v-24q0 -9 -7 -16t-16 -7h-94q-9 0 -15.5 -6.5t-6.5 -15.5v-852q0 -84 26 -152t87 -113t151 -45q91 0 153 45t88.5 113t26.5 152v852q0 9 -6.5 15.5t-15.5 6.5h-101q-9 0 -15.5 7t-6.5 16v24q0 9 6.5 16t15.5 7h312 q9 0 15.5 -7t6.5 -16v-24q0 -9 -6.5 -16t-15.5 -7h-86q-9 0 -16 -6.5t-7 -15.5v-842q0 -66 -10.5 -120.5t-39 -108t-75 -89.5t-122 -58.5t-175.5 -22.5q-222 0 -342.5 107.5t-120.5 324.5v809q0 9 -6.5 15.5t-15.5 6.5h-94q-9 0 -16 7t-7 16zM453 1434q-7 7 0 14l237 242 q2 2 8 2q7 0 9 -2l237 -242q7 -7 0 -14l-12 -13q-7 -7 -17 0l-217 140l-219 -140q-7 -7 -14 0z" />
<glyph unicode="&#xdc;" horiz-adv-x="1331" d="M88 1268v24q0 9 7 16t16 7h505q9 0 16 -7t7 -16v-24q0 -9 -7 -16t-16 -7h-94q-9 0 -15.5 -6.5t-6.5 -15.5v-852q0 -84 26 -152t87 -113t151 -45q91 0 153 45t88.5 113t26.5 152v852q0 9 -6.5 15.5t-15.5 6.5h-101q-9 0 -15.5 7t-6.5 16v24q0 9 6.5 16t15.5 7h312 q9 0 15.5 -7t6.5 -16v-24q0 -9 -6.5 -16t-15.5 -7h-86q-9 0 -16 -6.5t-7 -15.5v-842q0 -66 -10.5 -120.5t-39 -108t-75 -89.5t-122 -58.5t-175.5 -22.5q-222 0 -342.5 107.5t-120.5 324.5v809q0 9 -6.5 15.5t-15.5 6.5h-94q-9 0 -16 7t-7 16zM471 1528q0 35 22.5 60.5 t53.5 25.5q32 0 55 -25.5t23 -60.5t-23 -60.5t-55 -25.5q-31 0 -53.5 25.5t-22.5 60.5zM788 1528q0 35 23 60.5t55 25.5q31 0 53.5 -25.5t22.5 -60.5t-22.5 -60.5t-53.5 -25.5q-32 0 -55 25.5t-23 60.5z" />
<glyph unicode="&#xdd;" horiz-adv-x="1077" d="M-51 1268v24q0 9 6.5 16t15.5 7h506q9 0 16 -7t7 -16v-24q0 -9 -7 -16t-16 -7h-69q-20 0 -13 -20l254 -502l256 502q3 9 -0.5 14.5t-11.5 5.5h-96q-9 0 -15 7t-6 16v24q0 9 6 16t15 7h309q9 0 15.5 -7t6.5 -16v-24q0 -9 -6.5 -16t-15.5 -7h-80q-9 0 -20 -6.5t-15 -15.5 l-301 -596v-535q0 -9 7 -15.5t16 -6.5h102q9 0 16 -6.5t7 -14.5v-26q0 -9 -7 -16t-16 -7h-520q-9 0 -16 7t-7 16v26q0 8 7 14.5t16 6.5h102q9 0 16 6.5t7 15.5v512l-311 619q-15 22 -35 22h-103q-9 0 -15.5 7t-6.5 16zM350 1432q-10 17 8 28q9 6 36.5 22.5t46 28t43.5 29 t42 31.5q27 22 66.5 57.5t58.5 46.5q28 17 58 11.5t45 -31.5t5 -55t-38 -44q-16 -9 -36.5 -16t-54 -17.5t-63.5 -21.5q-55 -23 -180 -92q-20 -8 -29 8z" />
<glyph unicode="&#xde;" horiz-adv-x="1036" d="M72 -432q0 8 5.5 14t14.5 6h92q8 0 14.5 6t6.5 15v1622q0 9 -6.5 14.5t-14.5 5.5h-92q-20 0 -20 21v24q0 8 5.5 13.5t14.5 5.5h473q9 0 15 -6t6 -15v-22q0 -9 -6 -15t-15 -6h-96q-9 0 -14.5 -6t-5.5 -14v-502q33 58 78 82t137 23q120 -2 210.5 -126.5t90.5 -297.5 q0 -175 -90 -299.5t-211 -124.5q-51 0 -88 9t-61 27.5t-38 38t-28 48.5v-500q0 -21 20 -21h96q21 0 21 -20v-25q0 -8 -6 -13t-15 -5l-473 -2q-9 0 -14.5 6t-5.5 14v25zM446 410q0 -168 47 -265.5t115 -97.5q59 0 80 79t21 284q0 204 -21 283t-80 79q-68 0 -115 -97t-47 -265 z" />
<glyph unicode="&#xdf;" horiz-adv-x="1245" d="M41 20v25q0 18 20 18h91q9 0 14.5 6.5t5.5 14.5v795q0 229 85 332.5t280 103.5q80 0 144.5 -42t97 -102.5t32.5 -121.5q0 -49 -22.5 -102t-49 -92.5t-49 -91t-22.5 -97.5q0 -29 29.5 -50.5t75.5 -37.5t102 -32.5t110.5 -41t98.5 -57.5t68.5 -87t18.5 -124 q-10 -122 -100.5 -189t-208.5 -70q-72 -3 -136 21t-101 68v-46q0 -9 -6.5 -14.5t-14.5 -5.5h-24q-8 0 -14.5 5.5t-6.5 14.5v226q0 9 6.5 14.5t14.5 5.5h20q8 0 14.5 -5.5t6.5 -14.5q0 -85 70 -138t157 -55q65 -2 109 29.5t44 91.5q0 44 -28.5 71t-122.5 56q-87 26 -139 53 q-166 84 -166 236q0 42 20.5 100.5t48 111.5t51.5 115.5t35 116t-6.5 109t-68.5 98.5q-27 22 -68 25q-42 2 -71.5 -14.5t-43 -46.5t-19 -58t-5.5 -60v-1067q0 -9 -6.5 -14.5t-14.5 -5.5h-336q-20 0 -20 20z" />
<glyph unicode="&#xe0;" horiz-adv-x="948" d="M82 158q0 281 455 286v181q0 72 -28.5 105.5t-76.5 33.5q-70 0 -125 -47q-11 -11 0 -23q29 -24 35 -64.5t-15.5 -75t-64.5 -42.5q-36 -6 -63 12t-37 47q-19 56 5.5 107t75 84t109 52.5t107.5 19.5q43 0 84 -6t85.5 -23.5t77 -44.5t53.5 -73t21 -105v-494q0 -31 17 -31 q13 -3 26 11q27 18 45 36q4 4 12 4t13 -4l14 -16q6 -5 6 -12.5t-6 -12.5q-75 -87 -201 -77h-3.5h-2.5q-75 14 -110 42t-49 68q-67 -62 -125 -87t-133 -25q-92 0 -146.5 46.5t-54.5 127.5zM251.5 1128q-9.5 27 4.5 54q15 27 45 32.5t57 -12.5q19 -11 58.5 -46.5t66.5 -57.5 q22 -18 49.5 -37t72.5 -46.5t46 -27.5q8 -5 10 -13t-2 -16l-8 -14q-10 -17 -28 -6q-122 68 -181 90q-37 15 -85.5 30t-67.5 25q-28 18 -37.5 45zM319 178q3 -48 24.5 -72.5t54 -23.5t71.5 24q35 25 68 54v229q-27 -1 -51.5 -4.5t-58.5 -17t-57.5 -34.5t-38.5 -61.5 t-12 -93.5z" />
<glyph unicode="&#xe1;" horiz-adv-x="948" d="M82 158q0 281 455 286v181q0 72 -28.5 105.5t-76.5 33.5q-70 0 -125 -47q-11 -11 0 -23q29 -24 35 -64.5t-15.5 -75t-64.5 -42.5q-36 -6 -63 12t-37 47q-19 56 5.5 107t75 84t109 52.5t107.5 19.5q43 0 84 -6t85.5 -23.5t77 -44.5t53.5 -73t21 -105v-494q0 -31 17 -31 q13 -3 26 11q27 18 45 36q4 4 12 4t13 -4l14 -16q6 -5 6 -12.5t-6 -12.5q-75 -87 -201 -77h-3.5h-2.5q-75 14 -110 42t-49 68q-67 -62 -125 -87t-133 -25q-92 0 -146.5 46.5t-54.5 127.5zM254 974q2 8 10 13q137 86 168 111q29 23 66.5 58t56.5 46q29 18 59 12.5t45 -32.5 q15 -26 5 -54t-39 -45q-19 -11 -68.5 -26t-85.5 -29q-54 -21 -178 -90q-7 -5 -16.5 -3t-12.5 9l-8 14q-4 8 -2 16zM319 178q3 -48 24.5 -72.5t54 -23.5t71.5 24q35 25 68 54v229q-27 -1 -51.5 -4.5t-58.5 -17t-57.5 -34.5t-38.5 -61.5t-12 -93.5z" />
<glyph unicode="&#xe2;" horiz-adv-x="948" d="M82 158q0 281 455 286v181q0 72 -28.5 105.5t-76.5 33.5q-70 0 -125 -47q-11 -11 0 -23q29 -24 35 -64.5t-15.5 -75t-64.5 -42.5q-36 -6 -63 12t-37 47q-19 56 5.5 107t75 84t109 52.5t107.5 19.5q43 0 84 -6t85.5 -23.5t77 -44.5t53.5 -73t21 -105v-494q0 -31 17 -31 q13 -3 26 11q27 18 45 36q4 4 12 4t13 -4l14 -16q6 -5 6 -12.5t-6 -12.5q-75 -87 -201 -77h-3.5h-2.5q-75 14 -110 42t-49 68q-67 -62 -125 -87t-133 -25q-92 0 -146.5 46.5t-54.5 127.5zM225 934q-7 7 0 14l240 242q4 4 6 4q4 0 8 -4l238 -242q7 -7 0 -14l-12 -12 q-5 -5 -15 0l-219 141l-217 -141q-11 -4 -16 0zM319 178q3 -48 24.5 -72.5t54 -23.5t71.5 24q35 25 68 54v229q-27 -1 -51.5 -4.5t-58.5 -17t-57.5 -34.5t-38.5 -61.5t-12 -93.5z" />
<glyph unicode="&#xe3;" horiz-adv-x="948" d="M82 158q0 281 455 286v181q0 72 -28.5 105.5t-76.5 33.5q-70 0 -125 -47q-11 -11 0 -23q29 -24 35 -64.5t-15.5 -75t-64.5 -42.5q-36 -6 -63 12t-37 47q-19 56 5.5 107t75 84t109 52.5t107.5 19.5q43 0 84 -6t85.5 -23.5t77 -44.5t53.5 -73t21 -105v-494q0 -31 17 -31 q13 -3 26 11q27 18 45 36q4 4 12 4t13 -4l14 -16q6 -5 6 -12.5t-6 -12.5q-75 -87 -201 -77h-3.5h-2.5q-75 14 -110 42t-49 68q-67 -62 -125 -87t-133 -25q-92 0 -146.5 46.5t-54.5 127.5zM205 965q-8 11 2 28q2 4 12 22.5t21 37t27 42t35 40t40 28.5t46 11t50 -17 q88 -55 97 -59q20 -12 40.5 -14t35 1t34 15.5t28.5 20t27 24.5t21 20q16 12 27 -2l8 -10q8 -11 -4 -27q-1 -2 -11.5 -22.5t-20.5 -37t-27 -41t-35.5 -40.5t-40 -28t-46.5 -11t-51 17q-4 2 -43 27.5t-51 31.5q-24 13 -47 14.5t-46 -10t-34.5 -19.5t-34.5 -29.5t-26 -23.5 q-12 -12 -27 2zM319 178q3 -48 24.5 -72.5t54 -23.5t71.5 24q35 25 68 54v229q-27 -1 -51.5 -4.5t-58.5 -17t-57.5 -34.5t-38.5 -61.5t-12 -93.5z" />
<glyph unicode="&#xe4;" horiz-adv-x="948" d="M82 158q0 281 455 286v181q0 72 -28.5 105.5t-76.5 33.5q-70 0 -125 -47q-11 -11 0 -23q29 -24 35 -64.5t-15.5 -75t-64.5 -42.5q-36 -6 -63 12t-37 47q-19 56 5.5 107t75 84t109 52.5t107.5 19.5q43 0 84 -6t85.5 -23.5t77 -44.5t53.5 -73t21 -105v-494q0 -31 17 -31 q13 -3 26 11q27 18 45 36q4 4 12 4t13 -4l14 -16q6 -5 6 -12.5t-6 -12.5q-75 -87 -201 -77h-3.5h-2.5q-75 14 -110 42t-49 68q-67 -62 -125 -87t-133 -25q-92 0 -146.5 46.5t-54.5 127.5zM238 1051q0 36 21.5 61t53.5 25t55 -25.5t23 -60.5t-23 -60.5t-55 -25.5t-53.5 25 t-21.5 61zM319 178q3 -48 24.5 -72.5t54 -23.5t71.5 24q35 25 68 54v229q-27 -1 -51.5 -4.5t-58.5 -17t-57.5 -34.5t-38.5 -61.5t-12 -93.5zM555 1051q0 35 22.5 60.5t53.5 25.5q32 0 55 -25.5t23 -60.5t-23 -60.5t-55 -25.5q-31 0 -53.5 25.5t-22.5 60.5z" />
<glyph unicode="&#xe5;" horiz-adv-x="948" d="M82 158q0 281 455 286v181q0 72 -28.5 105.5t-76.5 33.5q-70 0 -125 -47q-11 -11 0 -23q29 -24 35 -64.5t-15.5 -75t-64.5 -42.5q-36 -6 -63 12t-37 47q-19 56 5.5 107t75 84t109 52.5t107.5 19.5q43 0 84 -6t85.5 -23.5t77 -44.5t53.5 -73t21 -105v-494q0 -31 17 -31 q13 -3 26 11q27 18 45 36q4 4 12 4t13 -4l14 -16q6 -5 6 -12.5t-6 -12.5q-75 -87 -201 -77h-3.5h-2.5q-75 14 -110 42t-49 68q-67 -62 -125 -87t-133 -25q-92 0 -146.5 46.5t-54.5 127.5zM299 1104q0 72 50.5 123t121.5 51q72 0 123 -51t51 -123t-51 -122t-123 -50 q-71 0 -121.5 50t-50.5 122zM319 178q3 -48 24.5 -72.5t54 -23.5t71.5 24q35 25 68 54v229q-27 -1 -51.5 -4.5t-58.5 -17t-57.5 -34.5t-38.5 -61.5t-12 -93.5zM367 1104q0 -43 30.5 -74t73.5 -31q44 0 75.5 31t31.5 74q0 44 -31.5 75t-75.5 31q-43 0 -73.5 -31t-30.5 -75z " />
<glyph unicode="&#xe6;" horiz-adv-x="1345" d="M82 158q0 281 455 286v181q0 72 -28.5 105.5t-76.5 33.5q-70 0 -125 -47q-11 -11 0 -23q29 -24 35 -64.5t-15.5 -75t-64.5 -42.5q-36 -6 -63 12t-37 47q-19 56 5.5 107t75 84t109 52.5t107.5 19.5q152 0 239 -68q85 62 197 68q187 9 278 -86.5t91 -274.5q0 -9 -5.5 -14.5 t-13.5 -5.5h-446v-43q0 -215 63 -304q28 -40 65 -50t87 3q107 28 172 150q8 20 26 20h35q18 0 10 -20q-40 -101 -120.5 -161t-186.5 -64q-106 -3 -191.5 39.5t-140.5 117.5q-89 -85 -165 -121t-170 -36q-92 0 -146.5 46.5t-54.5 127.5zM319 178q3 -48 24.5 -72.5t54 -23.5 t71.5 24q111 74 121 82q-47 89 -53 199v2q-27 -1 -51.5 -4.5t-58.5 -17t-57.5 -34.5t-38.5 -61.5t-12 -93.5zM801 516h209q10 78 2 131q-8 62 -28 92.5t-60 30.5q-66 0 -93 -59q-27 -55 -30 -195z" />
<glyph unicode="&#xe7;" horiz-adv-x="780" d="M59 410q0 112 44.5 208t130.5 156t196 60q137 0 225 -62q68 -48 97.5 -101t3.5 -122q-11 -31 -45 -52t-68 -14q-48 11 -70.5 50t-12.5 83.5t48 71.5q7 6 6.5 15.5t-6.5 15.5q-53 53 -149 53q-86 0 -111.5 -76t-25.5 -286q0 -175 15.5 -251.5t65.5 -97.5q23 -10 50 -10 q86 0 147 50t88 108q6 20 27 20h35q18 0 8 -20q-40 -100 -111.5 -158t-191.5 -65v-109q36 -2 79.5 -16.5t79 -43t35.5 -61.5q3 -63 -121 -131q-58 -28 -112 -35q-8 -2 -15 3t-8 12l-4 14q-4 19 14 23q45 5 86 30q26 14 44 36t18 44q0 31 -41 52.5t-131 25.5l18 158 q-154 12 -246 134t-92 288z" />
<glyph unicode="&#xe8;" horiz-adv-x="894" d="M82 410q0 172 97.5 294.5t260.5 129.5q187 9 278 -86.5t93 -274.5q0 -9 -6 -14.5t-14 -5.5h-447v-43q0 -214 64 -304q28 -40 64.5 -50t86.5 3q107 28 172 150q8 20 27 20h37q7 0 10 -6.5t-2 -13.5q-40 -101 -120.5 -161t-186.5 -64q-96 -3 -175.5 31.5t-131 95t-79.5 138 t-28 161.5zM277.5 1128q-9.5 28 5.5 54q15 27 45 32.5t57 -12.5q19 -11 58.5 -46.5t66.5 -57.5q22 -18 49.5 -37t72.5 -46.5t46 -27.5q8 -5 10 -13t-2 -16l-8 -14q-10 -17 -29 -6q-124 69 -180 90q-37 15 -86 30t-68 25q-28 17 -37.5 45zM346 516h209q10 78 2 131 q-8 62 -28 92.5t-60 30.5q-65 0 -92 -59q-28 -57 -31 -195z" />
<glyph unicode="&#xe9;" horiz-adv-x="894" d="M82 410q0 172 97.5 294.5t260.5 129.5q187 9 278 -86.5t93 -274.5q0 -9 -6 -14.5t-14 -5.5h-447v-43q0 -214 64 -304q28 -40 64.5 -50t86.5 3q107 28 172 150q8 20 27 20h37q7 0 10 -6.5t-2 -13.5q-40 -101 -120.5 -161t-186.5 -64q-96 -3 -175.5 31.5t-131 95t-79.5 138 t-28 161.5zM240 974q2 8 10 13q137 86 168 111q29 23 66.5 58t56.5 46q29 18 59 12.5t45 -32.5q15 -26 5 -54t-40 -45q-19 -11 -68.5 -26t-84.5 -29q-54 -21 -178 -90q-7 -5 -16.5 -3t-12.5 9l-8 14q-4 8 -2 16zM346 516h209q10 78 2 131q-8 62 -28 92.5t-60 30.5 q-65 0 -92 -59q-28 -57 -31 -195z" />
<glyph unicode="&#xea;" horiz-adv-x="894" d="M82 410q0 172 97.5 294.5t260.5 129.5q187 9 278 -86.5t93 -274.5q0 -9 -6 -14.5t-14 -5.5h-447v-43q0 -214 64 -304q28 -40 64.5 -50t86.5 3q107 28 172 150q8 20 27 20h37q7 0 10 -6.5t-2 -13.5q-40 -101 -120.5 -161t-186.5 -64q-96 -3 -175.5 31.5t-131 95t-79.5 138 t-28 161.5zM217 934q-7 7 0 14l240 242q4 4 6 4q4 0 8 -4l238 -242q7 -7 0 -14l-13 -12q-5 -5 -14 0l-219 141l-217 -141q-11 -4 -17 0zM346 516h209q10 78 2 131q-8 62 -28 92.5t-60 30.5q-65 0 -92 -59q-28 -57 -31 -195z" />
<glyph unicode="&#xeb;" horiz-adv-x="894" d="M82 410q0 172 97.5 294.5t260.5 129.5q187 9 278 -86.5t93 -274.5q0 -9 -6 -14.5t-14 -5.5h-447v-43q0 -214 64 -304q28 -40 64.5 -50t86.5 3q107 28 172 150q8 20 27 20h37q7 0 10 -6.5t-2 -13.5q-40 -101 -120.5 -161t-186.5 -64q-96 -3 -175.5 31.5t-131 95t-79.5 138 t-28 161.5zM227 1051q0 36 22 61t54 25t55 -25.5t23 -60.5t-23 -60.5t-55 -25.5t-54 25t-22 61zM346 516h209q10 78 2 131q-8 62 -28 92.5t-60 30.5q-65 0 -92 -59q-28 -57 -31 -195zM545 1051q0 35 22.5 60.5t53.5 25.5q32 0 54.5 -25.5t22.5 -60.5t-22.5 -60.5 t-54.5 -25.5q-31 0 -53.5 25.5t-22.5 60.5z" />
<glyph unicode="&#xec;" horiz-adv-x="643" d="M82 20v25q0 18 20 18h97q9 0 14.5 6.5t5.5 14.5v651q0 8 -5.5 13.5t-14.5 5.5h-97q-9 0 -14.5 6t-5.5 14v25q0 8 5.5 14t14.5 6h269q35 0 64.5 -44.5t29.5 -82.5v-608q0 -8 5.5 -14.5t12.5 -6.5h99q20 0 20 -18v-25q0 -20 -20 -20h-480q-20 0 -20 20zM101 1128 q-10 28 5 54q15 27 45.5 32.5t59.5 -12.5q18 -11 55.5 -45t69.5 -59q43 -36 168 -111q16 -9 8 -29l-8 -14q-10 -17 -29 -6q-120 66 -180 90q-36 14 -85.5 29t-68.5 26q-30 17 -40 45z" />
<glyph unicode="&#xed;" horiz-adv-x="643" d="M82 20v25q0 18 20 18h97q9 0 14.5 6.5t5.5 14.5v651q0 8 -5.5 13.5t-14.5 5.5h-97q-9 0 -14.5 6t-5.5 14v25q0 8 5.5 14t14.5 6h269q35 0 64.5 -44.5t29.5 -82.5v-608q0 -8 5.5 -14.5t12.5 -6.5h99q20 0 20 -18v-25q0 -20 -20 -20h-480q-20 0 -20 20zM96 974q2 8 10 13 q9 6 36.5 22.5t46 28t43.5 29t42 31.5q27 22 66.5 57.5t58.5 46.5q27 18 57.5 12.5t45.5 -32.5q14 -27 4.5 -54t-37.5 -45q-19 -10 -68 -25t-86 -30q-56 -21 -180 -90q-19 -11 -29 6l-8 14q-4 8 -2 16z" />
<glyph unicode="&#xee;" horiz-adv-x="643" d="M82 20v25q0 18 20 18h97q9 0 14.5 6.5t5.5 14.5v651q0 8 -5.5 13.5t-14.5 5.5h-97q-9 0 -14.5 6t-5.5 14v25q0 8 5.5 14t14.5 6h269q35 0 64.5 -44.5t29.5 -82.5v-608q0 -8 5.5 -14.5t12.5 -6.5h99q20 0 20 -18v-25q0 -20 -20 -20h-480q-20 0 -20 20zM98 934q-7 7 0 14 l238 242q4 4 8 4t8 -4l238 -242q7 -7 0 -14l-12 -12q-4 -4 -17 0l-217 141l-219 -141q-9 -5 -14 0z" />
<glyph unicode="&#xef;" horiz-adv-x="643" d="M82 20v25q0 18 20 18h97q9 0 14.5 6.5t5.5 14.5v651q0 8 -5.5 13.5t-14.5 5.5h-97q-9 0 -14.5 6t-5.5 14v25q0 8 5.5 14t14.5 6h269q35 0 64.5 -44.5t29.5 -82.5v-608q0 -8 5.5 -14.5t12.5 -6.5h99q20 0 20 -18v-25q0 -20 -20 -20h-480q-20 0 -20 20zM98 1051 q0 35 23 60.5t55 25.5q31 0 53.5 -25.5t22.5 -60.5t-22.5 -60.5t-53.5 -25.5q-32 0 -55 25.5t-23 60.5zM416 1051q0 35 23 60.5t55 25.5q31 0 53 -25.5t22 -60.5t-22 -60.5t-53 -25.5q-32 0 -55 25.5t-23 60.5z" />
<glyph unicode="&#xf0;" horiz-adv-x="1042" d="M123 391q0 76 19 147t57 132t103 98t149 37q90 0 165 -64q-8 157 -79 287l-152 -88q-21 -8 -31 8l-20 35q-4 8 -2 17t10 14l147 86q-84 113 -208 182q-18 11 -11 29l11 24q10 20 28 13q62 -19 141.5 -66t155.5 -117l107 62q8 4 16.5 2t13.5 -10l19 -33q11 -21 -6 -31 l-88 -49q237 -255 250 -592q4 -81 -4.5 -153.5t-34.5 -143.5t-69.5 -122.5t-115 -83t-164.5 -31.5q-166 0 -286.5 120.5t-120.5 290.5zM399 391q0 -187 27 -259.5t104 -72.5q30 0 51 7t35.5 26.5t22.5 41t12 65t5 83t1 109.5q0 85 -15.5 152t-39 104t-47 55.5t-43.5 18.5 q-68 0 -90.5 -71.5t-22.5 -258.5z" />
<glyph unicode="&#xf1;" horiz-adv-x="976" d="M4 774v25q0 8 6 14t15 6h360v-153q21 35 34.5 55.5t36.5 45t46.5 37t59.5 21.5t81 9q34 0 69.5 -11t74 -36.5t63 -78.5t24.5 -126v-498q0 -8 7 -14.5t14 -6.5h90q8 0 14.5 -5.5t6.5 -12.5v-25q0 -9 -6.5 -14.5t-14.5 -5.5h-420q-8 0 -14 5.5t-6 14.5v25q0 7 6 12.5 t14 5.5h45q9 0 15 6.5t6 14.5v522q0 74 -20.5 107.5t-59.5 27.5q-43 -8 -82.5 -65.5t-61.5 -133.5t-22 -141v-317q0 -8 6.5 -14.5t14.5 -6.5h47q8 0 14 -5.5t6 -12.5v-25q0 -9 -6 -14.5t-14 -5.5h-420q-8 0 -14.5 5.5t-6.5 14.5v25q0 7 6.5 12.5t14.5 5.5h88q9 0 14.5 6.5 t5.5 14.5v651q0 8 -5.5 13.5t-14.5 5.5h-96q-9 0 -15 6t-6 14zM250 965q-9 9 2 28q1 2 11.5 22.5t21 37t27 41.5t35 40.5t40 28t46.5 11.5t50 -17q92 -57 95 -59q24 -14 46.5 -16t45.5 9.5t35 20t35 29.5t26 24q16 12 27 -2l6 -10q10 -10 -2 -27q-1 -2 -11.5 -22.5 t-20.5 -37t-27 -41t-35.5 -40.5t-40 -28t-46.5 -11t-51 17q-8 4 -46 29t-48 30q-24 13 -47 14.5t-46 -10t-34.5 -19.5t-34.5 -29.5t-26 -23.5q-6 -6 -14 -5t-13 7z" />
<glyph unicode="&#xf2;" horiz-adv-x="985" d="M84 410q0 180 109 302t290 122t290.5 -122t109.5 -302q0 -182 -109.5 -304t-290.5 -122t-290 122t-109 304zM275.5 1128q-9.5 28 5.5 54q15 27 45 32.5t57 -12.5q19 -11 58.5 -46.5t66.5 -57.5q22 -18 49.5 -37t72.5 -46.5t46 -27.5q8 -5 10 -13t-2 -16l-8 -14 q-10 -17 -29 -6q-124 69 -180 90q-37 15 -86 30t-68 25q-28 17 -37.5 45zM346 410q0 -211 25.5 -287t111.5 -76t112 76t26 287q0 210 -26 286t-112 76t-111.5 -76t-25.5 -286z" />
<glyph unicode="&#xf3;" horiz-adv-x="985" d="M84 410q0 180 109 302t290 122t290.5 -122t109.5 -302q0 -182 -109.5 -304t-290.5 -122t-290 122t-109 304zM264 974q2 8 10 13q137 86 168 111q29 23 66.5 58t56.5 46q29 18 59.5 12.5t45.5 -32.5q15 -26 5 -54t-40 -45q-19 -11 -68.5 -26t-85.5 -29q-54 -21 -178 -90 q-7 -5 -16.5 -3t-12.5 9l-8 14q-4 8 -2 16zM346 410q0 -211 25.5 -287t111.5 -76t112 76t26 287q0 210 -26 286t-112 76t-111.5 -76t-25.5 -286z" />
<glyph unicode="&#xf4;" horiz-adv-x="985" d="M84 410q0 180 109 302t290 122t290.5 -122t109.5 -302q0 -182 -109.5 -304t-290.5 -122t-290 122t-109 304zM233 934q-7 7 0 14l240 242q4 4 6 4q4 0 8 -4l238 -242q7 -7 0 -14l-12 -12q-5 -5 -15 0l-219 141l-217 -141q-11 -4 -16 0zM346 410q0 -211 25.5 -287 t111.5 -76t112 76t26 287q0 210 -26 286t-112 76t-111.5 -76t-25.5 -286z" />
<glyph unicode="&#xf5;" horiz-adv-x="985" d="M84 410q0 180 109 302t290 122t290.5 -122t109.5 -302q0 -182 -109.5 -304t-290.5 -122t-290 122t-109 304zM221 965q-8 11 2 28q2 4 12 22.5t21 37t27.5 42t35 40t40 28.5t46.5 11t50 -17q91 -57 96 -59q20 -12 40.5 -14t35 1t34 15.5t28.5 20t27 24.5t21 20 q16 12 27 -2l8 -10q8 -11 -4 -27q-1 -2 -11.5 -22.5t-20.5 -37t-26.5 -41t-35 -40.5t-40 -28t-46.5 -11t-51 17q-4 2 -43.5 27.5t-51.5 31.5q-24 13 -47 14.5t-46 -10t-34.5 -19.5t-34.5 -29.5t-26 -23.5q-12 -12 -27 2zM346 410q0 -211 25.5 -287t111.5 -76t112 76t26 287 q0 210 -26 286t-112 76t-111.5 -76t-25.5 -286z" />
<glyph unicode="&#xf6;" horiz-adv-x="985" d="M84 410q0 180 109 302t290 122t290.5 -122t109.5 -302q0 -182 -109.5 -304t-290.5 -122t-290 122t-109 304zM246 1051q0 36 22 61t54 25t54.5 -25.5t22.5 -60.5t-22.5 -60.5t-54.5 -25.5t-54 25t-22 61zM346 410q0 -211 25.5 -287t111.5 -76t112 76t26 287q0 210 -26 286 t-112 76t-111.5 -76t-25.5 -286zM563 1051q0 35 22.5 60.5t53.5 25.5q32 0 55 -25.5t23 -60.5t-23 -60.5t-55 -25.5q-31 0 -53.5 25.5t-22.5 60.5z" />
<glyph unicode="&#xf7;" horiz-adv-x="675" d="M102 532v41q0 9 7 15t16 6h428q8 0 14 -6t6 -15v-41q0 -9 -6 -14.5t-14 -5.5h-428q-9 0 -16 5.5t-7 14.5zM270 346q0 31 20 53.5t48 22.5q29 0 49.5 -22.5t20.5 -53.5q0 -32 -20.5 -54t-49.5 -22q-28 0 -48 22t-20 54zM270 760q0 32 20.5 54t49.5 22q28 0 48 -22t20 -54 q0 -31 -20 -53.5t-48 -22.5q-29 0 -49.5 22.5t-20.5 53.5z" />
<glyph unicode="&#xf8;" horiz-adv-x="1003" d="M102 410q0 180 109.5 302t290.5 122q70 0 137 -23l8 18q13 21 29 11l33 -15q20 -12 10 -28l-8 -19q90 -55 140 -152t50 -216q0 -182 -109 -304t-290 -122q-77 0 -150 26l-6 -16q-10 -17 -31 -10l-30 14q-21 11 -11 31l9 18q-86 55 -133.5 151t-47.5 212zM365 410 q0 -104 6 -174l227 489q-28 47 -96 47q-86 0 -111.5 -76t-25.5 -286zM397 106q29 -59 105 -59q86 0 111.5 76t25.5 287q0 127 -8 198z" />
<glyph unicode="&#xf9;" horiz-adv-x="1050" d="M16 774v25q0 8 6 13t15 5h260q33 0 62.5 -43.5t29.5 -81.5v-499q0 -72 20.5 -98.5t57.5 -10.5q90 40 172 219v430q0 9 -6.5 15t-14.5 6h-73q-8 0 -13.5 5.5t-5.5 14.5v25q0 7 5.5 12.5t13.5 5.5h338v-729q0 -31 16 -31q13 -3 27 11q28 19 43 36q13 10 26 0l15 -16 q6 -5 6 -12.5t-6 -12.5q-75 -87 -201 -77h-3.5h-2.5q-130 24 -164 123v67q-28 -51 -74 -100q-48 -54 -97 -74t-112 -18q-39 2 -72 13t-66.5 36.5t-53 77t-19.5 125.5v497q0 21 -20 21h-88q-21 0 -21 20zM241.5 1128q-9.5 27 4.5 54q15 27 45 32.5t57 -12.5 q19 -11 58.5 -46.5t66.5 -57.5q22 -18 49.5 -37t72.5 -46.5t46 -27.5q8 -5 10 -13t-2 -16l-8 -14q-10 -17 -29 -6q-124 69 -180 90q-37 15 -85.5 30t-67.5 25q-28 18 -37.5 45z" />
<glyph unicode="&#xfa;" horiz-adv-x="1050" d="M16 774v25q0 8 6 13t15 5h260q33 0 62.5 -43.5t29.5 -81.5v-499q0 -72 20.5 -98.5t57.5 -10.5q90 40 172 219v430q0 9 -6.5 15t-14.5 6h-73q-8 0 -13.5 5.5t-5.5 14.5v25q0 7 5.5 12.5t13.5 5.5h338v-729q0 -31 16 -31q13 -3 27 11q28 19 43 36q13 10 26 0l15 -16 q6 -5 6 -12.5t-6 -12.5q-75 -87 -201 -77h-3.5h-2.5q-130 24 -164 123v67q-28 -51 -74 -100q-48 -54 -97 -74t-112 -18q-39 2 -72 13t-66.5 36.5t-53 77t-19.5 125.5v497q0 21 -20 21h-88q-21 0 -21 20zM244 974q2 8 10 13q137 86 168 111q26 21 51.5 44.5t41.5 37t32 22.5 q27 18 57 12.5t45 -32.5q15 -26 5 -54t-40 -45q-19 -11 -68.5 -26t-84.5 -29q-54 -21 -178 -90q-7 -5 -16.5 -3t-12.5 9l-8 14q-4 8 -2 16z" />
<glyph unicode="&#xfb;" horiz-adv-x="1050" d="M16 774v25q0 8 6 13t15 5h260q33 0 62.5 -43.5t29.5 -81.5v-499q0 -72 20.5 -98.5t57.5 -10.5q90 40 172 219v430q0 9 -6.5 15t-14.5 6h-73q-8 0 -13.5 5.5t-5.5 14.5v25q0 7 5.5 12.5t13.5 5.5h338v-729q0 -31 16 -31q13 -3 27 11q28 19 43 36q13 10 26 0l15 -16 q6 -5 6 -12.5t-6 -12.5q-75 -87 -201 -77h-3.5h-2.5q-130 24 -164 123v67q-28 -51 -74 -100q-48 -54 -97 -74t-112 -18q-39 2 -72 13t-66.5 36.5t-53 77t-19.5 125.5v497q0 21 -20 21h-88q-21 0 -21 20zM223 948l240 242q4 4 6 4q4 0 8 -4l238 -242q7 -7 0 -14l-13 -12 q-5 -5 -14 0l-219 141l-217 -141q-10 -4 -14 0l-13 12q-10 6 -2 14z" />
<glyph unicode="&#xfc;" horiz-adv-x="1050" d="M16 774v25q0 8 6 13t15 5h260q33 0 62.5 -43.5t29.5 -81.5v-499q0 -72 20.5 -98.5t57.5 -10.5q90 40 172 219v430q0 9 -6.5 15t-14.5 6h-73q-8 0 -13.5 5.5t-5.5 14.5v25q0 7 5.5 12.5t13.5 5.5h338v-729q0 -31 16 -31q13 -3 27 11q28 19 43 36q13 10 26 0l15 -16 q6 -5 6 -12.5t-6 -12.5q-75 -87 -201 -77h-3.5h-2.5q-130 24 -164 123v67q-28 -51 -74 -100q-48 -54 -97 -74t-112 -18q-39 2 -72 13t-66.5 36.5t-53 77t-19.5 125.5v497q0 21 -20 21h-88q-21 0 -21 20zM250 1051q0 35 22.5 60.5t53.5 25.5q32 0 54.5 -25.5t22.5 -60.5 t-22.5 -60.5t-54.5 -25.5q-31 0 -53.5 25.5t-22.5 60.5zM567 1051q0 35 22.5 60.5t53.5 25.5q32 0 55 -25.5t23 -60.5t-23 -60.5t-55 -25.5q-31 0 -53.5 25.5t-22.5 60.5z" />
<glyph unicode="&#xfd;" horiz-adv-x="808" d="M-43 -295q10 29 37 47.5t63 11.5q47 -9 66 -46.5t4.5 -78t-55.5 -57.5q9 -4 20 -5t28 3.5t32.5 16t34 36.5t32.5 62l137 350l-274 690q-8 19 -27 19h-63q-8 0 -14.5 6.5t-6.5 13.5v25q0 7 6.5 13.5t14.5 6.5h403q9 0 15 -6t6 -14v-25q0 -8 -6 -14t-15 -6h-57 q-17 0 -14 -17l151 -413l172 413q3 17 -14 17h-74q-7 0 -13.5 6t-6.5 14v25q0 7 6.5 13.5t13.5 6.5h240q7 0 13.5 -6.5t6.5 -13.5v-25q0 -8 -6.5 -14t-13.5 -6h-64q-19 0 -26 -17l-435 -1061q-31 -79 -78 -115t-98 -36q-80 0 -123 55t-18 125zM258 974q2 8 10 13 q9 6 36.5 22.5t46 28t43.5 29t42 31.5q27 22 66.5 57.5t58.5 46.5q27 18 57.5 12.5t45.5 -32.5q14 -27 4.5 -54t-37.5 -45q-19 -10 -68 -25t-86 -30q-56 -21 -180 -90q-19 -11 -29 6l-8 14q-4 8 -2 16z" />
<glyph unicode="&#xfe;" horiz-adv-x="1122" d="M72 23v26q0 8 6.5 14.5t15.5 6.5h94q9 0 16 6.5t7 15.5v1131q0 9 -7 15.5t-16 6.5h-94q-9 0 -15.5 7t-6.5 16v24q0 9 6.5 16t15.5 7h522q9 0 15 -7t6 -16v-24q0 -9 -6 -16t-15 -7h-110q-9 0 -16 -6.5t-7 -15.5v-191h127q190 0 315.5 -108.5t125.5 -261.5 q0 -77 -29.5 -146t-85 -123t-143.5 -85.5t-197 -31.5h-113v-184q0 -9 7 -15.5t16 -6.5h110q9 0 15 -6.5t6 -14.5v-26q0 -9 -6 -16t-15 -7h-522q-9 0 -15.5 7t-6.5 16zM483 354h31q130 0 191 76t61 232q0 151 -59 221.5t-179 70.5h-45v-600z" />
<glyph unicode="&#xff;" horiz-adv-x="808" d="M-43 -295q10 29 37 47.5t63 11.5q47 -9 66 -46.5t4.5 -78t-55.5 -57.5q9 -4 20 -5t28 3.5t32.5 16t34 36.5t32.5 62l137 350l-274 690q-8 19 -27 19h-63q-8 0 -14.5 6.5t-6.5 13.5v25q0 7 6.5 13.5t14.5 6.5h403q9 0 15 -6t6 -14v-25q0 -8 -6 -14t-15 -6h-57 q-17 0 -14 -17l151 -413l172 413q3 17 -14 17h-74q-7 0 -13.5 6t-6.5 14v25q0 7 6.5 13.5t13.5 6.5h240q7 0 13.5 -6.5t6.5 -13.5v-25q0 -8 -6.5 -14t-13.5 -6h-64q-19 0 -26 -17l-435 -1061q-31 -79 -78 -115t-98 -36q-80 0 -123 55t-18 125zM176 1051q0 36 22 61t54 25 t55 -25.5t23 -60.5t-23 -60.5t-55 -25.5t-54 25t-22 61zM494 1051q0 35 22 60.5t53 25.5q32 0 55 -25.5t23 -60.5t-23 -60.5t-55 -25.5q-31 0 -53 25.5t-22 60.5z" />
<glyph unicode="&#x152;" horiz-adv-x="1763" d="M92 657q0 191 64.5 343t191.5 242.5t297 90.5q134 0 238 -55l-4 37h766v-301q0 -9 -6 -16t-15 -7h-27q-9 0 -15.5 7t-6.5 16v102q0 39 -14.5 80t-32.5 41h-379v-504h209q15 0 29 37t14 72v18q0 9 5 15t13 6h25q20 0 20 -21v-364q0 -8 -5.5 -14.5t-14.5 -6.5h-25 q-7 0 -12.5 6.5t-5.5 14.5v49q0 35 -14 71.5t-29 36.5h-209v-573h426q18 0 32.5 40.5t14.5 78.5v131q0 9 7 15.5t16 6.5h26q9 0 15 -6.5t6 -15.5v-330h-813l4 35q-106 -53 -238 -53q-128 0 -233 52t-174.5 143t-107.5 214.5t-38 265.5zM387 657q0 -327 57 -461.5t201 -134.5 q142 0 199 135t57 461t-57 461t-199 135q-144 0 -201 -134.5t-57 -461.5z" />
<glyph unicode="&#x153;" horiz-adv-x="1449" d="M102 410q0 180 109.5 302t290.5 122q155 0 264 -97q98 91 231 97q187 9 278 -86.5t91 -274.5q0 -20 -18 -20h-447v-47q0 -210 64 -300q28 -40 64.5 -50t86.5 3q108 28 170 150q12 20 29 20h35q18 0 10 -20q-42 -101 -121.5 -161t-185.5 -64q-169 -6 -283 102 q-107 -102 -268 -102q-181 0 -290.5 122t-109.5 304zM365 410q0 -211 25.5 -287t111.5 -76t111.5 76t25.5 287q0 210 -25.5 286t-111.5 76t-111.5 -76t-25.5 -286zM903 516h209q10 78 2 131q-8 62 -28.5 92.5t-61.5 30.5q-63 0 -90 -59q-28 -57 -31 -195z" />
<glyph unicode="&#x178;" horiz-adv-x="1077" d="M-51 1268v24q0 9 6.5 16t15.5 7h506q9 0 16 -7t7 -16v-24q0 -9 -7 -16t-16 -7h-69q-20 0 -13 -20l254 -502l256 502q3 9 -0.5 14.5t-11.5 5.5h-96q-9 0 -15 7t-6 16v24q0 9 6 16t15 7h309q9 0 15.5 -7t6.5 -16v-24q0 -9 -6.5 -16t-15.5 -7h-80q-9 0 -20 -6.5t-15 -15.5 l-301 -596v-535q0 -9 7 -15.5t16 -6.5h102q9 0 16 -6.5t7 -14.5v-26q0 -9 -7 -16t-16 -7h-520q-9 0 -16 7t-7 16v26q0 8 7 14.5t16 6.5h102q9 0 16 6.5t7 15.5v512l-311 619q-15 22 -35 22h-103q-9 0 -15.5 7t-6.5 16zM338 1528q0 35 23 60.5t55 25.5q31 0 53.5 -25.5 t22.5 -60.5t-22.5 -60.5t-53.5 -25.5q-32 0 -55 25.5t-23 60.5zM655 1528q0 35 23 60.5t55 25.5q31 0 53.5 -25.5t22.5 -60.5t-22.5 -60.5t-53.5 -25.5q-32 0 -55 25.5t-23 60.5z" />
<glyph unicode="&#x2c6;" horiz-adv-x="696" d="M102 1153q-8 8 0 16l238 242q2 2 8 2t8 -2l238 -242q8 -8 0 -16l-12 -10q-5 -8 -17 0l-217 139l-219 -139q-8 -8 -14 0z" />
<glyph unicode="&#x2dc;" horiz-adv-x="694" d="M72 1223q-9 12 2 26q2 4 12 22.5t21 37t27 42t35 40.5t40 29t46 11t50 -16q5 -3 25.5 -16.5t40.5 -26.5t30 -18q17 -10 33.5 -13.5t33.5 1t28.5 8t28 16.5t23 18t23 21.5l17.5 17.5q15 11 26 -4l9 -8q7 -9 -5 -29q-2 -3 -11.5 -22t-20.5 -36.5t-27 -41t-34.5 -40 t-40 -28.5t-46.5 -11t-51 16q-40 29 -94 61q-21 11 -42 12.5t-35.5 -1.5t-34.5 -15.5t-28.5 -20t-27 -25t-21.5 -20.5q-13 -9 -26 4z" />
<glyph unicode="&#x2000;" horiz-adv-x="889" />
<glyph unicode="&#x2001;" horiz-adv-x="1778" />
<glyph unicode="&#x2002;" horiz-adv-x="889" />
<glyph unicode="&#x2003;" horiz-adv-x="1778" />
<glyph unicode="&#x2004;" horiz-adv-x="592" />
<glyph unicode="&#x2005;" horiz-adv-x="444" />
<glyph unicode="&#x2006;" horiz-adv-x="296" />
<glyph unicode="&#x2007;" horiz-adv-x="296" />
<glyph unicode="&#x2008;" horiz-adv-x="222" />
<glyph unicode="&#x2009;" horiz-adv-x="355" />
<glyph unicode="&#x200a;" horiz-adv-x="98" />
<glyph unicode="&#x2010;" horiz-adv-x="880" d="M205 532v41q0 9 6.5 15t15.5 6h428q8 0 14.5 -6t6.5 -15v-41q0 -9 -6.5 -14.5t-14.5 -5.5h-428q-9 0 -15.5 5.5t-6.5 14.5z" />
<glyph unicode="&#x2011;" horiz-adv-x="880" d="M205 532v41q0 9 6.5 15t15.5 6h428q8 0 14.5 -6t6.5 -15v-41q0 -9 -6.5 -14.5t-14.5 -5.5h-428q-9 0 -15.5 5.5t-6.5 14.5z" />
<glyph unicode="&#x2012;" horiz-adv-x="880" d="M205 532v41q0 9 6.5 15t15.5 6h428q8 0 14.5 -6t6.5 -15v-41q0 -9 -6.5 -14.5t-14.5 -5.5h-428q-9 0 -15.5 5.5t-6.5 14.5z" />
<glyph unicode="&#x2013;" horiz-adv-x="933" d="M10 539v30q0 9 7 15t16 6h868q9 0 16 -6t7 -15v-30q0 -9 -7 -16t-16 -7h-868q-9 0 -16 7t-7 16z" />
<glyph unicode="&#x2014;" horiz-adv-x="1196" d="M10 539v30q0 9 7 15t16 6h1130q9 0 16 -6t7 -15v-30q0 -9 -7 -16t-16 -7h-1130q-9 0 -16 7t-7 16z" />
<glyph unicode="&#x2018;" horiz-adv-x="575" d="M143 1044q-1 33 4.5 65.5t12 56t22.5 53t24 44t31.5 41.5t29 34t31.5 33l26 26q16 16 32 4l15 -10q17 -13 6 -35q-175 -182 -139 -316q5 29 29 52.5t50 23.5q47 0 81 -35t34 -84q0 -42 -26.5 -73.5t-65.5 -40.5q-74 -20 -134 24.5t-63 136.5z" />
<glyph unicode="&#x2019;" horiz-adv-x="575" d="M143 1237q0 43 27 75.5t68 41.5q73 18 133 -26.5t61 -135.5q2 -49 -9.5 -95.5t-25.5 -77.5t-42.5 -68.5t-43 -52.5t-44.5 -45l-13 -13q-16 -16 -35 -4l-14 10q-8 6 -9 15.5t5 17.5q18 20 23.5 26.5t25.5 30t28.5 37.5t24.5 38.5t22.5 44t13.5 44t6.5 49t-7.5 47.5 q-3 -30 -28 -53t-52 -23q-48 0 -81.5 34t-33.5 83z" />
<glyph unicode="&#x201a;" horiz-adv-x="575" d="M143 78q0 42 27 74t68 43q73 18 133 -26.5t61 -135.5q1 -27 -2 -53.5t-7.5 -47.5t-14.5 -44.5t-16.5 -38.5t-22 -36.5t-22 -31.5t-25 -30t-23.5 -25.5t-24 -24t-21 -20.5q-18 -18 -35 -7l-14 11q-8 6 -9 16t5 18q19 21 23.5 26.5t25.5 30t29 37.5t24.5 38t22.5 44.5 t13.5 44.5t6.5 49t-8 48q-3 -30 -28 -54t-52 -24q-47 0 -81 35t-34 84z" />
<glyph unicode="&#x201c;" horiz-adv-x="946" d="M143 1044q-1 33 4.5 65.5t12 56t22.5 53t24 44t31.5 41.5t29 34t31.5 33l26 26q16 16 32 4l15 -10q17 -13 6 -35q-175 -182 -139 -316q5 29 29 52.5t50 23.5q47 0 81 -35t34 -84q0 -42 -26.5 -73.5t-65.5 -40.5q-74 -20 -134 24.5t-63 136.5zM512 1044q-1 30 2 57.5 t12 53t16 46t22.5 44t23.5 37t27.5 35t26 29t27 28l23.5 23.5q19 15 33 4l14 -10q20 -14 6 -35q-175 -182 -139 -316q5 29 29.5 52.5t52.5 23.5q47 0 81 -35t34 -84q0 -42 -26.5 -73.5t-67.5 -40.5q-73 -20 -133.5 25t-63.5 136z" />
<glyph unicode="&#x201d;" horiz-adv-x="946" d="M143 1237q0 43 27 75.5t68 41.5q73 18 133 -26.5t61 -135.5q2 -49 -9.5 -95.5t-25.5 -77.5t-42.5 -68.5t-43 -52.5t-44.5 -45l-13 -13q-16 -16 -35 -4l-14 10q-8 6 -9 15.5t5 17.5q18 20 23.5 26.5t25.5 30t28.5 37.5t24.5 38.5t22.5 44t13.5 44t6.5 49t-7.5 47.5 q-3 -30 -28 -53t-52 -23q-48 0 -81.5 34t-33.5 83zM512 1237q0 43 26.5 75.5t67.5 41.5q73 18 133.5 -26.5t63.5 -135.5q1 -49 -10.5 -95.5t-26 -77.5t-42.5 -67.5t-43.5 -53t-44.5 -45.5l-13 -13q-17 -17 -33 -4l-15 10q-9 6 -10.5 16t4.5 17q83 92 114 151q47 90 26 166 q-4 -30 -29.5 -53t-52.5 -23q-48 0 -81.5 34t-33.5 83z" />
<glyph unicode="&#x201e;" horiz-adv-x="942" d="M143 78q0 42 27 74t68 43q73 18 133 -26.5t61 -135.5q1 -27 -2 -53.5t-7.5 -47.5t-14.5 -44.5t-16.5 -38.5t-22 -36.5t-22 -31.5t-25 -30t-23.5 -25.5t-24 -24t-21 -20.5q-18 -18 -35 -7l-14 11q-8 6 -9 16t5 18q19 21 23.5 26.5t25.5 30t29 37.5t24.5 38t22.5 44.5 t13.5 44.5t6.5 49t-8 48q-3 -30 -28 -54t-52 -24q-47 0 -81 35t-34 84zM510 78q0 42 26.5 74t67.5 43q73 18 133.5 -26.5t61.5 -135.5q1 -27 -2 -53.5t-7.5 -47.5t-14.5 -44.5t-16.5 -38.5t-22 -36.5t-22 -31.5t-25 -30t-23.5 -25.5t-24 -24t-21 -20.5q-18 -18 -35 -7 l-15 11q-8 6 -9 16t5 18q80 89 110 144q51 94 28 174q-3 -30 -28 -54t-52 -24q-47 0 -81 35t-34 84z" />
<glyph unicode="&#x2022;" horiz-adv-x="555" d="M123 535q0 66 45.5 112.5t110.5 46.5q63 0 108 -46.5t45 -112.5t-45 -113t-108 -47q-64 0 -110 47t-46 113z" />
<glyph unicode="&#x2026;" horiz-adv-x="1607" d="M164 88q0 44 30.5 76.5t73.5 32.5t74 -32.5t31 -76.5t-31 -75t-74 -31t-73.5 31t-30.5 75zM700 88q0 44 31 76.5t74 32.5t73.5 -32.5t30.5 -76.5t-30.5 -75t-73.5 -31t-74 31t-31 75zM1237 88q0 45 30 77t72 32q44 0 74.5 -32t30.5 -77q0 -44 -30.5 -75t-74.5 -31 q-43 0 -72.5 31t-29.5 75z" />
<glyph unicode="&#x202f;" horiz-adv-x="355" />
<glyph unicode="&#x2039;" horiz-adv-x="831" d="M205 553q0 10 6 16l494 486q6 6 15 6t15 -6l25 -27q12 -12 0 -31l-262 -444l262 -444q12 -19 0 -31l-25 -27q-6 -6 -15 -6t-15 6l-494 486q-6 9 -6 16z" />
<glyph unicode="&#x203a;" horiz-adv-x="831" d="M72 78q-12 12 0 31l262 444l-262 444q-12 19 0 31l24 27q6 6 15.5 6t15.5 -6l494 -486q6 -6 6 -16q0 -7 -6 -16l-494 -486q-6 -6 -15.5 -6t-15.5 6z" />
<glyph unicode="&#x205f;" horiz-adv-x="444" />
<glyph unicode="&#x2122;" horiz-adv-x="1652" d="M72 1145v198h610v-198q0 -6 -5 -11.5t-11 -5.5h-21q-6 0 -11 5.5t-5 11.5v47q0 31 -11 61.5t-24 30.5h-129v-528q0 -6 5 -11.5t11 -5.5h70q16 0 16 -14v-20q0 -6 -4.5 -11.5t-11.5 -5.5h-350q-6 0 -11.5 5.5t-5.5 11.5v20q0 6 5.5 10t11.5 4h71q6 0 11.5 5.5t5.5 11.5 v528h-129q-13 0 -25 -31t-12 -61v-47q0 -6 -5 -11.5t-12 -5.5h-18q-6 0 -11 5.5t-5 11.5zM715 705v20q0 14 14 14h68q7 0 11.5 5.5t4.5 11.5v520q0 16 -16 16h-68q-14 0 -14 17v18q0 6 4 11t10 5h211q16 -1 30 -14.5t21 -30.5l158 -378l160 378q7 17 21 31t30 14h207 q6 0 10 -5t4 -11v-18q0 -17 -14 -17h-68q-6 0 -11 -5t-5 -11v-520q0 -6 5 -11.5t11 -5.5h68q14 0 14 -14v-20q0 -6 -4 -11.5t-10 -5.5h-328q-6 0 -10 5.5t-4 11.5v20q0 14 14 14h51q6 0 11.5 5.5t5.5 11.5v381l-197 -449q-3 -10 -12 -10h-23q-9 0 -12 10l-186 447v-379 q0 -6 4.5 -11.5t11.5 -5.5h49q6 0 11 -4t5 -10v-20q0 -6 -5 -11.5t-11 -5.5h-213q-6 0 -10 5.5t-4 11.5z" />
<glyph unicode="&#xe000;" horiz-adv-x="819" d="M0 0v819h819v-819h-819z" />
<glyph unicode="&#xfb01;" horiz-adv-x="1331" d="M41 776v23q0 7 5.5 12.5t12.5 5.5h142v62q0 72 1 101.5t9.5 79.5t26.5 89q79 173 307 166q83 -3 145.5 -65.5t36.5 -141.5q-10 -29 -37 -47t-63 -12q-47 9 -68 48t-8.5 81t53.5 59q-31 23 -67 23q-23 1 -39.5 -5t-26.5 -19.5t-16 -26.5t-8 -35.5t-2.5 -35.5t-0.5 -38v-13 v-270q102 0 307 1t308 1q33 0 62.5 -44.5t29.5 -82.5v-608q0 -8 6.5 -14.5t13.5 -6.5h99q8 0 14 -5.5t6 -12.5v-25q0 -9 -6 -14.5t-14 -5.5h-482q-18 0 -18 20v25q0 7 5 12.5t13 5.5h99q7 0 13.5 6.5t6.5 14.5v661q0 5 -4 13h-459v-674q0 -8 6 -14.5t15 -6.5h88q8 0 14 -5.5 t6 -12.5v-25q0 -9 -6 -14.5t-14 -5.5h-465q-8 0 -14 5.5t-6 14.5v25q0 7 6 12.5t14 5.5h92q8 0 14.5 6.5t6.5 14.5v674h-142q-7 0 -12.5 5t-5.5 13z" />
<glyph unicode="&#xfb02;" horiz-adv-x="1329" d="M41 776v23q0 7 5.5 12.5t12.5 5.5h142v109q0 139 25 228.5t93 141.5q76 59 188.5 66.5t192.5 -47.5h357q35 0 64.5 -43.5t29.5 -81.5v-1106q0 -8 6.5 -14.5t13.5 -6.5h99q8 0 13 -5.5t5 -12.5v-25q0 -20 -18 -20h-482q-8 0 -14 5.5t-6 14.5v25q0 7 6 12.5t14 5.5h99 q7 0 13.5 6.5t6.5 14.5v1147q0 7 -6.5 13.5t-13.5 6.5h-129q24 -50 8 -96q-10 -29 -37 -47t-63 -12q-47 9 -68 48t-8.5 81t53.5 59q-31 23 -82 23q-35 1 -60 -14.5t-36.5 -43.5t-16 -55.5t-4.5 -58.5v-318h164q8 0 14.5 -5.5t6.5 -12.5v-23q0 -7 -6.5 -12.5t-14.5 -5.5h-164 v-674q0 -8 6 -14.5t15 -6.5h88q8 0 14 -5.5t6 -12.5v-25q0 -9 -6 -14.5t-14 -5.5h-465q-8 0 -14 5.5t-6 14.5v25q0 7 6 12.5t14 5.5h92q8 0 14.5 6.5t6.5 14.5v674h-142q-7 0 -12.5 5t-5.5 13z" />
</font>
</defs>
</svg>
